%TF.GenerationSoftware,KiCad,Pcbnew,(5.1.9-0-10_14)*%
%TF.CreationDate,2021-04-02T13:04:38+02:00*%
%TF.ProjectId,W-DAC Piggy Board,572d4441-4320-4506-9967-677920426f61,rev?*%
%TF.SameCoordinates,Original*%
%TF.FileFunction,Legend,Top*%
%TF.FilePolarity,Positive*%
%FSLAX46Y46*%
G04 Gerber Fmt 4.6, Leading zero omitted, Abs format (unit mm)*
G04 Created by KiCad (PCBNEW (5.1.9-0-10_14)) date 2021-04-02 13:04:38*
%MOMM*%
%LPD*%
G01*
G04 APERTURE LIST*
%ADD10C,0.150000*%
%ADD11C,0.120000*%
G04 APERTURE END LIST*
D10*
X140476190Y-59764761D02*
X140619047Y-59812380D01*
X140857142Y-59812380D01*
X140952380Y-59764761D01*
X141000000Y-59717142D01*
X141047619Y-59621904D01*
X141047619Y-59526666D01*
X141000000Y-59431428D01*
X140952380Y-59383809D01*
X140857142Y-59336190D01*
X140666666Y-59288571D01*
X140571428Y-59240952D01*
X140523809Y-59193333D01*
X140476190Y-59098095D01*
X140476190Y-59002857D01*
X140523809Y-58907619D01*
X140571428Y-58860000D01*
X140666666Y-58812380D01*
X140904761Y-58812380D01*
X141047619Y-58860000D01*
X141380952Y-59145714D02*
X141571428Y-59812380D01*
X141761904Y-59336190D01*
X141952380Y-59812380D01*
X142142857Y-59145714D01*
X142952380Y-59812380D02*
X142952380Y-59288571D01*
X142904761Y-59193333D01*
X142809523Y-59145714D01*
X142619047Y-59145714D01*
X142523809Y-59193333D01*
X142952380Y-59764761D02*
X142857142Y-59812380D01*
X142619047Y-59812380D01*
X142523809Y-59764761D01*
X142476190Y-59669523D01*
X142476190Y-59574285D01*
X142523809Y-59479047D01*
X142619047Y-59431428D01*
X142857142Y-59431428D01*
X142952380Y-59383809D01*
X143428571Y-59145714D02*
X143428571Y-60145714D01*
X143428571Y-59193333D02*
X143523809Y-59145714D01*
X143714285Y-59145714D01*
X143809523Y-59193333D01*
X143857142Y-59240952D01*
X143904761Y-59336190D01*
X143904761Y-59621904D01*
X143857142Y-59717142D01*
X143809523Y-59764761D01*
X143714285Y-59812380D01*
X143523809Y-59812380D01*
X143428571Y-59764761D01*
X144285714Y-59764761D02*
X144380952Y-59812380D01*
X144571428Y-59812380D01*
X144666666Y-59764761D01*
X144714285Y-59669523D01*
X144714285Y-59621904D01*
X144666666Y-59526666D01*
X144571428Y-59479047D01*
X144428571Y-59479047D01*
X144333333Y-59431428D01*
X144285714Y-59336190D01*
X144285714Y-59288571D01*
X144333333Y-59193333D01*
X144428571Y-59145714D01*
X144571428Y-59145714D01*
X144666666Y-59193333D01*
X146380952Y-59812380D02*
X145904761Y-59812380D01*
X145904761Y-58812380D01*
X146714285Y-59145714D02*
X146714285Y-60145714D01*
X146714285Y-59193333D02*
X146809523Y-59145714D01*
X147000000Y-59145714D01*
X147095238Y-59193333D01*
X147142857Y-59240952D01*
X147190476Y-59336190D01*
X147190476Y-59621904D01*
X147142857Y-59717142D01*
X147095238Y-59764761D01*
X147000000Y-59812380D01*
X146809523Y-59812380D01*
X146714285Y-59764761D01*
X148333333Y-58764761D02*
X147476190Y-60050476D01*
X149142857Y-59812380D02*
X148666666Y-59812380D01*
X148666666Y-58812380D01*
X149476190Y-59145714D02*
X149476190Y-59812380D01*
X149476190Y-59240952D02*
X149523809Y-59193333D01*
X149619047Y-59145714D01*
X149761904Y-59145714D01*
X149857142Y-59193333D01*
X149904761Y-59288571D01*
X149904761Y-59812380D01*
X151571428Y-59812380D02*
X151571428Y-59288571D01*
X151523809Y-59193333D01*
X151428571Y-59145714D01*
X151238095Y-59145714D01*
X151142857Y-59193333D01*
X151571428Y-59764761D02*
X151476190Y-59812380D01*
X151238095Y-59812380D01*
X151142857Y-59764761D01*
X151095238Y-59669523D01*
X151095238Y-59574285D01*
X151142857Y-59479047D01*
X151238095Y-59431428D01*
X151476190Y-59431428D01*
X151571428Y-59383809D01*
X152047619Y-59145714D02*
X152047619Y-59812380D01*
X152047619Y-59240952D02*
X152095238Y-59193333D01*
X152190476Y-59145714D01*
X152333333Y-59145714D01*
X152428571Y-59193333D01*
X152476190Y-59288571D01*
X152476190Y-59812380D01*
X153380952Y-59812380D02*
X153380952Y-58812380D01*
X153380952Y-59764761D02*
X153285714Y-59812380D01*
X153095238Y-59812380D01*
X153000000Y-59764761D01*
X152952380Y-59717142D01*
X152904761Y-59621904D01*
X152904761Y-59336190D01*
X152952380Y-59240952D01*
X153000000Y-59193333D01*
X153095238Y-59145714D01*
X153285714Y-59145714D01*
X153380952Y-59193333D01*
X155190476Y-59812380D02*
X154857142Y-59336190D01*
X154619047Y-59812380D02*
X154619047Y-58812380D01*
X155000000Y-58812380D01*
X155095238Y-58860000D01*
X155142857Y-58907619D01*
X155190476Y-59002857D01*
X155190476Y-59145714D01*
X155142857Y-59240952D01*
X155095238Y-59288571D01*
X155000000Y-59336190D01*
X154619047Y-59336190D01*
X155619047Y-59145714D02*
X155619047Y-60145714D01*
X155619047Y-59193333D02*
X155714285Y-59145714D01*
X155904761Y-59145714D01*
X156000000Y-59193333D01*
X156047619Y-59240952D01*
X156095238Y-59336190D01*
X156095238Y-59621904D01*
X156047619Y-59717142D01*
X156000000Y-59764761D01*
X155904761Y-59812380D01*
X155714285Y-59812380D01*
X155619047Y-59764761D01*
X157238095Y-58764761D02*
X156380952Y-60050476D01*
X158142857Y-59812380D02*
X157809523Y-59336190D01*
X157571428Y-59812380D02*
X157571428Y-58812380D01*
X157952380Y-58812380D01*
X158047619Y-58860000D01*
X158095238Y-58907619D01*
X158142857Y-59002857D01*
X158142857Y-59145714D01*
X158095238Y-59240952D01*
X158047619Y-59288571D01*
X157952380Y-59336190D01*
X157571428Y-59336190D01*
X158571428Y-59145714D02*
X158571428Y-59812380D01*
X158571428Y-59240952D02*
X158619047Y-59193333D01*
X158714285Y-59145714D01*
X158857142Y-59145714D01*
X158952380Y-59193333D01*
X159000000Y-59288571D01*
X159000000Y-59812380D01*
X159476190Y-59717142D02*
X159523809Y-59764761D01*
X159476190Y-59812380D01*
X159428571Y-59764761D01*
X159476190Y-59717142D01*
X159476190Y-59812380D01*
X159476190Y-59431428D02*
X159428571Y-58860000D01*
X159476190Y-58812380D01*
X159523809Y-58860000D01*
X159476190Y-59431428D01*
X159476190Y-58812380D01*
X133733333Y-47021904D02*
X133733333Y-46221904D01*
X134000000Y-46793333D01*
X134266666Y-46221904D01*
X134266666Y-47021904D01*
X135720952Y-47021904D02*
X135720952Y-46221904D01*
X136559047Y-47021904D02*
X136292380Y-46640952D01*
X136101904Y-47021904D02*
X136101904Y-46221904D01*
X136406666Y-46221904D01*
X136482857Y-46260000D01*
X136520952Y-46298095D01*
X136559047Y-46374285D01*
X136559047Y-46488571D01*
X136520952Y-46564761D01*
X136482857Y-46602857D01*
X136406666Y-46640952D01*
X136101904Y-46640952D01*
X137435238Y-47098095D02*
X137359047Y-47060000D01*
X137282857Y-46983809D01*
X137168571Y-46869523D01*
X137092380Y-46831428D01*
X137016190Y-46831428D01*
X137054285Y-47021904D02*
X136978095Y-46983809D01*
X136901904Y-46907619D01*
X136863809Y-46755238D01*
X136863809Y-46488571D01*
X136901904Y-46336190D01*
X136978095Y-46260000D01*
X137054285Y-46221904D01*
X137206666Y-46221904D01*
X137282857Y-46260000D01*
X137359047Y-46336190D01*
X137397142Y-46488571D01*
X137397142Y-46755238D01*
X137359047Y-46907619D01*
X137282857Y-46983809D01*
X137206666Y-47021904D01*
X137054285Y-47021904D01*
X138108571Y-46983809D02*
X138222857Y-47021904D01*
X138413333Y-47021904D01*
X138489523Y-46983809D01*
X138527619Y-46945714D01*
X138565714Y-46869523D01*
X138565714Y-46793333D01*
X138527619Y-46717142D01*
X138489523Y-46679047D01*
X138413333Y-46640952D01*
X138260952Y-46602857D01*
X138184761Y-46564761D01*
X138146666Y-46526666D01*
X138108571Y-46450476D01*
X138108571Y-46374285D01*
X138146666Y-46298095D01*
X138184761Y-46260000D01*
X138260952Y-46221904D01*
X138451428Y-46221904D01*
X138565714Y-46260000D01*
X138908571Y-47021904D02*
X138908571Y-46221904D01*
X139099047Y-46221904D01*
X139213333Y-46260000D01*
X139289523Y-46336190D01*
X139327619Y-46412380D01*
X139365714Y-46564761D01*
X139365714Y-46679047D01*
X139327619Y-46831428D01*
X139289523Y-46907619D01*
X139213333Y-46983809D01*
X139099047Y-47021904D01*
X138908571Y-47021904D01*
X139670476Y-46793333D02*
X140051428Y-46793333D01*
X139594285Y-47021904D02*
X139860952Y-46221904D01*
X140127619Y-47021904D01*
X140667619Y-46983809D02*
X140781904Y-47021904D01*
X140972380Y-47021904D01*
X141048571Y-46983809D01*
X141086666Y-46945714D01*
X141124761Y-46869523D01*
X141124761Y-46793333D01*
X141086666Y-46717142D01*
X141048571Y-46679047D01*
X140972380Y-46640952D01*
X140820000Y-46602857D01*
X140743809Y-46564761D01*
X140705714Y-46526666D01*
X140667619Y-46450476D01*
X140667619Y-46374285D01*
X140705714Y-46298095D01*
X140743809Y-46260000D01*
X140820000Y-46221904D01*
X141010476Y-46221904D01*
X141124761Y-46260000D01*
X141924761Y-46945714D02*
X141886666Y-46983809D01*
X141772380Y-47021904D01*
X141696190Y-47021904D01*
X141581904Y-46983809D01*
X141505714Y-46907619D01*
X141467619Y-46831428D01*
X141429523Y-46679047D01*
X141429523Y-46564761D01*
X141467619Y-46412380D01*
X141505714Y-46336190D01*
X141581904Y-46260000D01*
X141696190Y-46221904D01*
X141772380Y-46221904D01*
X141886666Y-46260000D01*
X141924761Y-46298095D01*
X142648571Y-47021904D02*
X142267619Y-47021904D01*
X142267619Y-46221904D01*
X143550476Y-46260000D02*
X143474285Y-46221904D01*
X143360000Y-46221904D01*
X143245714Y-46260000D01*
X143169523Y-46336190D01*
X143131428Y-46412380D01*
X143093333Y-46564761D01*
X143093333Y-46679047D01*
X143131428Y-46831428D01*
X143169523Y-46907619D01*
X143245714Y-46983809D01*
X143360000Y-47021904D01*
X143436190Y-47021904D01*
X143550476Y-46983809D01*
X143588571Y-46945714D01*
X143588571Y-46679047D01*
X143436190Y-46679047D01*
X143931428Y-47021904D02*
X143931428Y-46221904D01*
X144388571Y-47021904D01*
X144388571Y-46221904D01*
X144769523Y-47021904D02*
X144769523Y-46221904D01*
X144960000Y-46221904D01*
X145074285Y-46260000D01*
X145150476Y-46336190D01*
X145188571Y-46412380D01*
X145226666Y-46564761D01*
X145226666Y-46679047D01*
X145188571Y-46831428D01*
X145150476Y-46907619D01*
X145074285Y-46983809D01*
X144960000Y-47021904D01*
X144769523Y-47021904D01*
X160182857Y-49922380D02*
X160516190Y-50922380D01*
X160849523Y-49922380D01*
X161182857Y-50922380D02*
X161182857Y-49922380D01*
X161754285Y-50922380D01*
X161754285Y-49922380D01*
X170798095Y-122273333D02*
X171598095Y-122273333D01*
X171026666Y-122540000D01*
X171598095Y-122806666D01*
X170798095Y-122806666D01*
X171560000Y-132090476D02*
X171598095Y-132014285D01*
X171598095Y-131900000D01*
X171560000Y-131785714D01*
X171483809Y-131709523D01*
X171407619Y-131671428D01*
X171255238Y-131633333D01*
X171140952Y-131633333D01*
X170988571Y-131671428D01*
X170912380Y-131709523D01*
X170836190Y-131785714D01*
X170798095Y-131900000D01*
X170798095Y-131976190D01*
X170836190Y-132090476D01*
X170874285Y-132128571D01*
X171140952Y-132128571D01*
X171140952Y-131976190D01*
X170798095Y-132471428D02*
X171598095Y-132471428D01*
X170798095Y-132928571D01*
X171598095Y-132928571D01*
X170798095Y-133309523D02*
X171598095Y-133309523D01*
X171598095Y-133500000D01*
X171560000Y-133614285D01*
X171483809Y-133690476D01*
X171407619Y-133728571D01*
X171255238Y-133766666D01*
X171140952Y-133766666D01*
X170988571Y-133728571D01*
X170912380Y-133690476D01*
X170836190Y-133614285D01*
X170798095Y-133500000D01*
X170798095Y-133309523D01*
X171560000Y-119390476D02*
X171598095Y-119314285D01*
X171598095Y-119200000D01*
X171560000Y-119085714D01*
X171483809Y-119009523D01*
X171407619Y-118971428D01*
X171255238Y-118933333D01*
X171140952Y-118933333D01*
X170988571Y-118971428D01*
X170912380Y-119009523D01*
X170836190Y-119085714D01*
X170798095Y-119200000D01*
X170798095Y-119276190D01*
X170836190Y-119390476D01*
X170874285Y-119428571D01*
X171140952Y-119428571D01*
X171140952Y-119276190D01*
X170798095Y-119771428D02*
X171598095Y-119771428D01*
X170798095Y-120228571D01*
X171598095Y-120228571D01*
X170798095Y-120609523D02*
X171598095Y-120609523D01*
X171598095Y-120800000D01*
X171560000Y-120914285D01*
X171483809Y-120990476D01*
X171407619Y-121028571D01*
X171255238Y-121066666D01*
X171140952Y-121066666D01*
X170988571Y-121028571D01*
X170912380Y-120990476D01*
X170836190Y-120914285D01*
X170798095Y-120800000D01*
X170798095Y-120609523D01*
X128260000Y-120609523D02*
X128221904Y-120685714D01*
X128221904Y-120800000D01*
X128260000Y-120914285D01*
X128336190Y-120990476D01*
X128412380Y-121028571D01*
X128564761Y-121066666D01*
X128679047Y-121066666D01*
X128831428Y-121028571D01*
X128907619Y-120990476D01*
X128983809Y-120914285D01*
X129021904Y-120800000D01*
X129021904Y-120723809D01*
X128983809Y-120609523D01*
X128945714Y-120571428D01*
X128679047Y-120571428D01*
X128679047Y-120723809D01*
X129021904Y-120228571D02*
X128221904Y-120228571D01*
X129021904Y-119771428D01*
X128221904Y-119771428D01*
X129021904Y-119390476D02*
X128221904Y-119390476D01*
X128221904Y-119200000D01*
X128260000Y-119085714D01*
X128336190Y-119009523D01*
X128412380Y-118971428D01*
X128564761Y-118933333D01*
X128679047Y-118933333D01*
X128831428Y-118971428D01*
X128907619Y-119009523D01*
X128983809Y-119085714D01*
X129021904Y-119200000D01*
X129021904Y-119390476D01*
X128260000Y-125689523D02*
X128221904Y-125765714D01*
X128221904Y-125880000D01*
X128260000Y-125994285D01*
X128336190Y-126070476D01*
X128412380Y-126108571D01*
X128564761Y-126146666D01*
X128679047Y-126146666D01*
X128831428Y-126108571D01*
X128907619Y-126070476D01*
X128983809Y-125994285D01*
X129021904Y-125880000D01*
X129021904Y-125803809D01*
X128983809Y-125689523D01*
X128945714Y-125651428D01*
X128679047Y-125651428D01*
X128679047Y-125803809D01*
X129021904Y-125308571D02*
X128221904Y-125308571D01*
X129021904Y-124851428D01*
X128221904Y-124851428D01*
X129021904Y-124470476D02*
X128221904Y-124470476D01*
X128221904Y-124280000D01*
X128260000Y-124165714D01*
X128336190Y-124089523D01*
X128412380Y-124051428D01*
X128564761Y-124013333D01*
X128679047Y-124013333D01*
X128831428Y-124051428D01*
X128907619Y-124089523D01*
X128983809Y-124165714D01*
X129021904Y-124280000D01*
X129021904Y-124470476D01*
X128221904Y-128286666D02*
X129021904Y-128020000D01*
X128221904Y-127753333D01*
X129021904Y-127486666D02*
X128221904Y-127486666D01*
X128221904Y-127181904D01*
X128260000Y-127105714D01*
X128298095Y-127067619D01*
X128374285Y-127029523D01*
X128488571Y-127029523D01*
X128564761Y-127067619D01*
X128602857Y-127105714D01*
X128640952Y-127181904D01*
X128640952Y-127486666D01*
X128221904Y-130845714D02*
X129021904Y-130579047D01*
X128221904Y-130312380D01*
X129021904Y-130045714D02*
X128221904Y-130045714D01*
X129021904Y-129588571D01*
X128221904Y-129588571D01*
X171560000Y-114310476D02*
X171598095Y-114234285D01*
X171598095Y-114120000D01*
X171560000Y-114005714D01*
X171483809Y-113929523D01*
X171407619Y-113891428D01*
X171255238Y-113853333D01*
X171140952Y-113853333D01*
X170988571Y-113891428D01*
X170912380Y-113929523D01*
X170836190Y-114005714D01*
X170798095Y-114120000D01*
X170798095Y-114196190D01*
X170836190Y-114310476D01*
X170874285Y-114348571D01*
X171140952Y-114348571D01*
X171140952Y-114196190D01*
X170798095Y-114691428D02*
X171598095Y-114691428D01*
X170798095Y-115148571D01*
X171598095Y-115148571D01*
X170798095Y-115529523D02*
X171598095Y-115529523D01*
X171598095Y-115720000D01*
X171560000Y-115834285D01*
X171483809Y-115910476D01*
X171407619Y-115948571D01*
X171255238Y-115986666D01*
X171140952Y-115986666D01*
X170988571Y-115948571D01*
X170912380Y-115910476D01*
X170836190Y-115834285D01*
X170798095Y-115720000D01*
X170798095Y-115529523D01*
X170798095Y-135125714D02*
X170798095Y-134744761D01*
X171598095Y-134744761D01*
X171331428Y-135392380D02*
X170798095Y-135392380D01*
X171255238Y-135392380D02*
X171293333Y-135430476D01*
X171331428Y-135506666D01*
X171331428Y-135620952D01*
X171293333Y-135697142D01*
X171217142Y-135735238D01*
X170798095Y-135735238D01*
X170798095Y-137665714D02*
X170798095Y-137284761D01*
X171598095Y-137284761D01*
X171331428Y-137932380D02*
X170531428Y-137932380D01*
X171293333Y-137932380D02*
X171331428Y-138008571D01*
X171331428Y-138160952D01*
X171293333Y-138237142D01*
X171255238Y-138275238D01*
X171179047Y-138313333D01*
X170950476Y-138313333D01*
X170874285Y-138275238D01*
X170836190Y-138237142D01*
X170798095Y-138160952D01*
X170798095Y-138008571D01*
X170836190Y-137932380D01*
X171598095Y-116793333D02*
X170798095Y-117060000D01*
X171598095Y-117326666D01*
X170798095Y-117593333D02*
X171598095Y-117593333D01*
X171598095Y-117783809D01*
X171560000Y-117898095D01*
X171483809Y-117974285D01*
X171407619Y-118012380D01*
X171255238Y-118050476D01*
X171140952Y-118050476D01*
X170988571Y-118012380D01*
X170912380Y-117974285D01*
X170836190Y-117898095D01*
X170798095Y-117783809D01*
X170798095Y-117593333D01*
X128260000Y-133309523D02*
X128221904Y-133385714D01*
X128221904Y-133500000D01*
X128260000Y-133614285D01*
X128336190Y-133690476D01*
X128412380Y-133728571D01*
X128564761Y-133766666D01*
X128679047Y-133766666D01*
X128831428Y-133728571D01*
X128907619Y-133690476D01*
X128983809Y-133614285D01*
X129021904Y-133500000D01*
X129021904Y-133423809D01*
X128983809Y-133309523D01*
X128945714Y-133271428D01*
X128679047Y-133271428D01*
X128679047Y-133423809D01*
X129021904Y-132928571D02*
X128221904Y-132928571D01*
X129021904Y-132471428D01*
X128221904Y-132471428D01*
X129021904Y-132090476D02*
X128221904Y-132090476D01*
X128221904Y-131900000D01*
X128260000Y-131785714D01*
X128336190Y-131709523D01*
X128412380Y-131671428D01*
X128564761Y-131633333D01*
X128679047Y-131633333D01*
X128831428Y-131671428D01*
X128907619Y-131709523D01*
X128983809Y-131785714D01*
X129021904Y-131900000D01*
X129021904Y-132090476D01*
X129021904Y-135354285D02*
X128640952Y-135620952D01*
X129021904Y-135811428D02*
X128221904Y-135811428D01*
X128221904Y-135506666D01*
X128260000Y-135430476D01*
X128298095Y-135392380D01*
X128374285Y-135354285D01*
X128488571Y-135354285D01*
X128564761Y-135392380D01*
X128602857Y-135430476D01*
X128640952Y-135506666D01*
X128640952Y-135811428D01*
X128488571Y-135011428D02*
X129021904Y-135011428D01*
X128564761Y-135011428D02*
X128526666Y-134973333D01*
X128488571Y-134897142D01*
X128488571Y-134782857D01*
X128526666Y-134706666D01*
X128602857Y-134668571D01*
X129021904Y-134668571D01*
X129021904Y-137894285D02*
X128640952Y-138160952D01*
X129021904Y-138351428D02*
X128221904Y-138351428D01*
X128221904Y-138046666D01*
X128260000Y-137970476D01*
X128298095Y-137932380D01*
X128374285Y-137894285D01*
X128488571Y-137894285D01*
X128564761Y-137932380D01*
X128602857Y-137970476D01*
X128640952Y-138046666D01*
X128640952Y-138351428D01*
X128488571Y-137551428D02*
X129288571Y-137551428D01*
X128526666Y-137551428D02*
X128488571Y-137475238D01*
X128488571Y-137322857D01*
X128526666Y-137246666D01*
X128564761Y-137208571D01*
X128640952Y-137170476D01*
X128869523Y-137170476D01*
X128945714Y-137208571D01*
X128983809Y-137246666D01*
X129021904Y-137322857D01*
X129021904Y-137475238D01*
X128983809Y-137551428D01*
X164166666Y-49922380D02*
X164500000Y-50922380D01*
X164833333Y-49922380D01*
X165166666Y-50922380D02*
X165166666Y-49922380D01*
X165547619Y-49922380D01*
X165642857Y-49970000D01*
X165690476Y-50017619D01*
X165738095Y-50112857D01*
X165738095Y-50255714D01*
X165690476Y-50350952D01*
X165642857Y-50398571D01*
X165547619Y-50446190D01*
X165166666Y-50446190D01*
X156318095Y-49970000D02*
X156222857Y-49922380D01*
X156080000Y-49922380D01*
X155937142Y-49970000D01*
X155841904Y-50065238D01*
X155794285Y-50160476D01*
X155746666Y-50350952D01*
X155746666Y-50493809D01*
X155794285Y-50684285D01*
X155841904Y-50779523D01*
X155937142Y-50874761D01*
X156080000Y-50922380D01*
X156175238Y-50922380D01*
X156318095Y-50874761D01*
X156365714Y-50827142D01*
X156365714Y-50493809D01*
X156175238Y-50493809D01*
X156794285Y-50922380D02*
X156794285Y-49922380D01*
X157365714Y-50922380D01*
X157365714Y-49922380D01*
X157841904Y-50922380D02*
X157841904Y-49922380D01*
X158080000Y-49922380D01*
X158222857Y-49970000D01*
X158318095Y-50065238D01*
X158365714Y-50160476D01*
X158413333Y-50350952D01*
X158413333Y-50493809D01*
X158365714Y-50684285D01*
X158318095Y-50779523D01*
X158222857Y-50874761D01*
X158080000Y-50922380D01*
X157841904Y-50922380D01*
X152286666Y-49922380D02*
X152620000Y-50922380D01*
X152953333Y-49922380D01*
X153286666Y-50922380D02*
X153286666Y-49922380D01*
X153524761Y-49922380D01*
X153667619Y-49970000D01*
X153762857Y-50065238D01*
X153810476Y-50160476D01*
X153858095Y-50350952D01*
X153858095Y-50493809D01*
X153810476Y-50684285D01*
X153762857Y-50779523D01*
X153667619Y-50874761D01*
X153524761Y-50922380D01*
X153286666Y-50922380D01*
X128983809Y-50792380D02*
X129021904Y-50678095D01*
X129021904Y-50487619D01*
X128983809Y-50411428D01*
X128945714Y-50373333D01*
X128869523Y-50335238D01*
X128793333Y-50335238D01*
X128717142Y-50373333D01*
X128679047Y-50411428D01*
X128640952Y-50487619D01*
X128602857Y-50640000D01*
X128564761Y-50716190D01*
X128526666Y-50754285D01*
X128450476Y-50792380D01*
X128374285Y-50792380D01*
X128298095Y-50754285D01*
X128260000Y-50716190D01*
X128221904Y-50640000D01*
X128221904Y-50449523D01*
X128260000Y-50335238D01*
X128945714Y-49535238D02*
X128983809Y-49573333D01*
X129021904Y-49687619D01*
X129021904Y-49763809D01*
X128983809Y-49878095D01*
X128907619Y-49954285D01*
X128831428Y-49992380D01*
X128679047Y-50030476D01*
X128564761Y-50030476D01*
X128412380Y-49992380D01*
X128336190Y-49954285D01*
X128260000Y-49878095D01*
X128221904Y-49763809D01*
X128221904Y-49687619D01*
X128260000Y-49573333D01*
X128298095Y-49535238D01*
X129021904Y-48811428D02*
X129021904Y-49192380D01*
X128221904Y-49192380D01*
X129021904Y-42334285D02*
X129021904Y-42715238D01*
X128221904Y-42715238D01*
X128488571Y-42067619D02*
X129288571Y-42067619D01*
X128526666Y-42067619D02*
X128488571Y-41991428D01*
X128488571Y-41839047D01*
X128526666Y-41762857D01*
X128564761Y-41724761D01*
X128640952Y-41686666D01*
X128869523Y-41686666D01*
X128945714Y-41724761D01*
X128983809Y-41762857D01*
X129021904Y-41839047D01*
X129021904Y-41991428D01*
X128983809Y-42067619D01*
X129021904Y-44874285D02*
X129021904Y-45255238D01*
X128221904Y-45255238D01*
X128488571Y-44607619D02*
X129021904Y-44607619D01*
X128564761Y-44607619D02*
X128526666Y-44569523D01*
X128488571Y-44493333D01*
X128488571Y-44379047D01*
X128526666Y-44302857D01*
X128602857Y-44264761D01*
X129021904Y-44264761D01*
X128260000Y-47909523D02*
X128221904Y-47985714D01*
X128221904Y-48100000D01*
X128260000Y-48214285D01*
X128336190Y-48290476D01*
X128412380Y-48328571D01*
X128564761Y-48366666D01*
X128679047Y-48366666D01*
X128831428Y-48328571D01*
X128907619Y-48290476D01*
X128983809Y-48214285D01*
X129021904Y-48100000D01*
X129021904Y-48023809D01*
X128983809Y-47909523D01*
X128945714Y-47871428D01*
X128679047Y-47871428D01*
X128679047Y-48023809D01*
X129021904Y-47528571D02*
X128221904Y-47528571D01*
X129021904Y-47071428D01*
X128221904Y-47071428D01*
X129021904Y-46690476D02*
X128221904Y-46690476D01*
X128221904Y-46500000D01*
X128260000Y-46385714D01*
X128336190Y-46309523D01*
X128412380Y-46271428D01*
X128564761Y-46233333D01*
X128679047Y-46233333D01*
X128831428Y-46271428D01*
X128907619Y-46309523D01*
X128983809Y-46385714D01*
X129021904Y-46500000D01*
X129021904Y-46690476D01*
X128983809Y-53351428D02*
X129021904Y-53237142D01*
X129021904Y-53046666D01*
X128983809Y-52970476D01*
X128945714Y-52932380D01*
X128869523Y-52894285D01*
X128793333Y-52894285D01*
X128717142Y-52932380D01*
X128679047Y-52970476D01*
X128640952Y-53046666D01*
X128602857Y-53199047D01*
X128564761Y-53275238D01*
X128526666Y-53313333D01*
X128450476Y-53351428D01*
X128374285Y-53351428D01*
X128298095Y-53313333D01*
X128260000Y-53275238D01*
X128221904Y-53199047D01*
X128221904Y-53008571D01*
X128260000Y-52894285D01*
X129021904Y-52551428D02*
X128221904Y-52551428D01*
X128221904Y-52360952D01*
X128260000Y-52246666D01*
X128336190Y-52170476D01*
X128412380Y-52132380D01*
X128564761Y-52094285D01*
X128679047Y-52094285D01*
X128831428Y-52132380D01*
X128907619Y-52170476D01*
X128983809Y-52246666D01*
X129021904Y-52360952D01*
X129021904Y-52551428D01*
X128793333Y-51789523D02*
X128793333Y-51408571D01*
X129021904Y-51865714D02*
X128221904Y-51599047D01*
X129021904Y-51332380D01*
X129021904Y-55739047D02*
X128221904Y-55739047D01*
X129021904Y-54900952D02*
X128640952Y-55167619D01*
X129021904Y-55358095D02*
X128221904Y-55358095D01*
X128221904Y-55053333D01*
X128260000Y-54977142D01*
X128298095Y-54939047D01*
X128374285Y-54900952D01*
X128488571Y-54900952D01*
X128564761Y-54939047D01*
X128602857Y-54977142D01*
X128640952Y-55053333D01*
X128640952Y-55358095D01*
X129098095Y-54024761D02*
X129060000Y-54100952D01*
X128983809Y-54177142D01*
X128869523Y-54291428D01*
X128831428Y-54367619D01*
X128831428Y-54443809D01*
X129021904Y-54405714D02*
X128983809Y-54481904D01*
X128907619Y-54558095D01*
X128755238Y-54596190D01*
X128488571Y-54596190D01*
X128336190Y-54558095D01*
X128260000Y-54481904D01*
X128221904Y-54405714D01*
X128221904Y-54253333D01*
X128260000Y-54177142D01*
X128336190Y-54100952D01*
X128488571Y-54062857D01*
X128755238Y-54062857D01*
X128907619Y-54100952D01*
X128983809Y-54177142D01*
X129021904Y-54253333D01*
X129021904Y-54405714D01*
X129021904Y-57726666D02*
X128221904Y-57726666D01*
X128793333Y-57460000D01*
X128221904Y-57193333D01*
X129021904Y-57193333D01*
X128260000Y-60609523D02*
X128221904Y-60685714D01*
X128221904Y-60800000D01*
X128260000Y-60914285D01*
X128336190Y-60990476D01*
X128412380Y-61028571D01*
X128564761Y-61066666D01*
X128679047Y-61066666D01*
X128831428Y-61028571D01*
X128907619Y-60990476D01*
X128983809Y-60914285D01*
X129021904Y-60800000D01*
X129021904Y-60723809D01*
X128983809Y-60609523D01*
X128945714Y-60571428D01*
X128679047Y-60571428D01*
X128679047Y-60723809D01*
X129021904Y-60228571D02*
X128221904Y-60228571D01*
X129021904Y-59771428D01*
X128221904Y-59771428D01*
X129021904Y-59390476D02*
X128221904Y-59390476D01*
X128221904Y-59200000D01*
X128260000Y-59085714D01*
X128336190Y-59009523D01*
X128412380Y-58971428D01*
X128564761Y-58933333D01*
X128679047Y-58933333D01*
X128831428Y-58971428D01*
X128907619Y-59009523D01*
X128983809Y-59085714D01*
X129021904Y-59200000D01*
X129021904Y-59390476D01*
X128221904Y-63206666D02*
X129021904Y-62940000D01*
X128221904Y-62673333D01*
X129021904Y-62406666D02*
X128221904Y-62406666D01*
X128221904Y-62216190D01*
X128260000Y-62101904D01*
X128336190Y-62025714D01*
X128412380Y-61987619D01*
X128564761Y-61949523D01*
X128679047Y-61949523D01*
X128831428Y-61987619D01*
X128907619Y-62025714D01*
X128983809Y-62101904D01*
X129021904Y-62216190D01*
X129021904Y-62406666D01*
X128260000Y-65689523D02*
X128221904Y-65765714D01*
X128221904Y-65880000D01*
X128260000Y-65994285D01*
X128336190Y-66070476D01*
X128412380Y-66108571D01*
X128564761Y-66146666D01*
X128679047Y-66146666D01*
X128831428Y-66108571D01*
X128907619Y-66070476D01*
X128983809Y-65994285D01*
X129021904Y-65880000D01*
X129021904Y-65803809D01*
X128983809Y-65689523D01*
X128945714Y-65651428D01*
X128679047Y-65651428D01*
X128679047Y-65803809D01*
X129021904Y-65308571D02*
X128221904Y-65308571D01*
X129021904Y-64851428D01*
X128221904Y-64851428D01*
X129021904Y-64470476D02*
X128221904Y-64470476D01*
X128221904Y-64280000D01*
X128260000Y-64165714D01*
X128336190Y-64089523D01*
X128412380Y-64051428D01*
X128564761Y-64013333D01*
X128679047Y-64013333D01*
X128831428Y-64051428D01*
X128907619Y-64089523D01*
X128983809Y-64165714D01*
X129021904Y-64280000D01*
X129021904Y-64470476D01*
X170798095Y-42105714D02*
X171179047Y-41839047D01*
X170798095Y-41648571D02*
X171598095Y-41648571D01*
X171598095Y-41953333D01*
X171560000Y-42029523D01*
X171521904Y-42067619D01*
X171445714Y-42105714D01*
X171331428Y-42105714D01*
X171255238Y-42067619D01*
X171217142Y-42029523D01*
X171179047Y-41953333D01*
X171179047Y-41648571D01*
X171331428Y-42448571D02*
X170531428Y-42448571D01*
X171293333Y-42448571D02*
X171331428Y-42524761D01*
X171331428Y-42677142D01*
X171293333Y-42753333D01*
X171255238Y-42791428D01*
X171179047Y-42829523D01*
X170950476Y-42829523D01*
X170874285Y-42791428D01*
X170836190Y-42753333D01*
X170798095Y-42677142D01*
X170798095Y-42524761D01*
X170836190Y-42448571D01*
X170798095Y-44645714D02*
X171179047Y-44379047D01*
X170798095Y-44188571D02*
X171598095Y-44188571D01*
X171598095Y-44493333D01*
X171560000Y-44569523D01*
X171521904Y-44607619D01*
X171445714Y-44645714D01*
X171331428Y-44645714D01*
X171255238Y-44607619D01*
X171217142Y-44569523D01*
X171179047Y-44493333D01*
X171179047Y-44188571D01*
X171331428Y-44988571D02*
X170798095Y-44988571D01*
X171255238Y-44988571D02*
X171293333Y-45026666D01*
X171331428Y-45102857D01*
X171331428Y-45217142D01*
X171293333Y-45293333D01*
X171217142Y-45331428D01*
X170798095Y-45331428D01*
X171560000Y-46690476D02*
X171598095Y-46614285D01*
X171598095Y-46500000D01*
X171560000Y-46385714D01*
X171483809Y-46309523D01*
X171407619Y-46271428D01*
X171255238Y-46233333D01*
X171140952Y-46233333D01*
X170988571Y-46271428D01*
X170912380Y-46309523D01*
X170836190Y-46385714D01*
X170798095Y-46500000D01*
X170798095Y-46576190D01*
X170836190Y-46690476D01*
X170874285Y-46728571D01*
X171140952Y-46728571D01*
X171140952Y-46576190D01*
X170798095Y-47071428D02*
X171598095Y-47071428D01*
X170798095Y-47528571D01*
X171598095Y-47528571D01*
X170798095Y-47909523D02*
X171598095Y-47909523D01*
X171598095Y-48100000D01*
X171560000Y-48214285D01*
X171483809Y-48290476D01*
X171407619Y-48328571D01*
X171255238Y-48366666D01*
X171140952Y-48366666D01*
X170988571Y-48328571D01*
X170912380Y-48290476D01*
X170836190Y-48214285D01*
X170798095Y-48100000D01*
X170798095Y-47909523D01*
X171598095Y-49154285D02*
X170798095Y-49420952D01*
X171598095Y-49687619D01*
X170798095Y-49954285D02*
X171598095Y-49954285D01*
X170798095Y-50411428D01*
X171598095Y-50411428D01*
X171598095Y-51713333D02*
X170798095Y-51980000D01*
X171598095Y-52246666D01*
X170798095Y-52513333D02*
X171598095Y-52513333D01*
X171598095Y-52818095D01*
X171560000Y-52894285D01*
X171521904Y-52932380D01*
X171445714Y-52970476D01*
X171331428Y-52970476D01*
X171255238Y-52932380D01*
X171217142Y-52894285D01*
X171179047Y-52818095D01*
X171179047Y-52513333D01*
X171560000Y-54310476D02*
X171598095Y-54234285D01*
X171598095Y-54120000D01*
X171560000Y-54005714D01*
X171483809Y-53929523D01*
X171407619Y-53891428D01*
X171255238Y-53853333D01*
X171140952Y-53853333D01*
X170988571Y-53891428D01*
X170912380Y-53929523D01*
X170836190Y-54005714D01*
X170798095Y-54120000D01*
X170798095Y-54196190D01*
X170836190Y-54310476D01*
X170874285Y-54348571D01*
X171140952Y-54348571D01*
X171140952Y-54196190D01*
X170798095Y-54691428D02*
X171598095Y-54691428D01*
X170798095Y-55148571D01*
X171598095Y-55148571D01*
X170798095Y-55529523D02*
X171598095Y-55529523D01*
X171598095Y-55720000D01*
X171560000Y-55834285D01*
X171483809Y-55910476D01*
X171407619Y-55948571D01*
X171255238Y-55986666D01*
X171140952Y-55986666D01*
X170988571Y-55948571D01*
X170912380Y-55910476D01*
X170836190Y-55834285D01*
X170798095Y-55720000D01*
X170798095Y-55529523D01*
X171560000Y-59390476D02*
X171598095Y-59314285D01*
X171598095Y-59200000D01*
X171560000Y-59085714D01*
X171483809Y-59009523D01*
X171407619Y-58971428D01*
X171255238Y-58933333D01*
X171140952Y-58933333D01*
X170988571Y-58971428D01*
X170912380Y-59009523D01*
X170836190Y-59085714D01*
X170798095Y-59200000D01*
X170798095Y-59276190D01*
X170836190Y-59390476D01*
X170874285Y-59428571D01*
X171140952Y-59428571D01*
X171140952Y-59276190D01*
X170798095Y-59771428D02*
X171598095Y-59771428D01*
X170798095Y-60228571D01*
X171598095Y-60228571D01*
X170798095Y-60609523D02*
X171598095Y-60609523D01*
X171598095Y-60800000D01*
X171560000Y-60914285D01*
X171483809Y-60990476D01*
X171407619Y-61028571D01*
X171255238Y-61066666D01*
X171140952Y-61066666D01*
X170988571Y-61028571D01*
X170912380Y-60990476D01*
X170836190Y-60914285D01*
X170798095Y-60800000D01*
X170798095Y-60609523D01*
X154380952Y-41452380D02*
X154380952Y-42166666D01*
X154333333Y-42309523D01*
X154238095Y-42404761D01*
X154095238Y-42452380D01*
X154000000Y-42452380D01*
X155333333Y-42452380D02*
X154857142Y-42452380D01*
X154857142Y-41452380D01*
X156238095Y-42357142D02*
X156190476Y-42404761D01*
X156047619Y-42452380D01*
X155952380Y-42452380D01*
X155809523Y-42404761D01*
X155714285Y-42309523D01*
X155666666Y-42214285D01*
X155619047Y-42023809D01*
X155619047Y-41880952D01*
X155666666Y-41690476D01*
X155714285Y-41595238D01*
X155809523Y-41500000D01*
X155952380Y-41452380D01*
X156047619Y-41452380D01*
X156190476Y-41500000D01*
X156238095Y-41547619D01*
X156952380Y-41452380D02*
X156952380Y-42166666D01*
X156904761Y-42309523D01*
X156809523Y-42404761D01*
X156666666Y-42452380D01*
X156571428Y-42452380D01*
X157904761Y-42452380D02*
X157428571Y-42452380D01*
X157428571Y-41452380D01*
X158809523Y-42357142D02*
X158761904Y-42404761D01*
X158619047Y-42452380D01*
X158523809Y-42452380D01*
X158380952Y-42404761D01*
X158285714Y-42309523D01*
X158238095Y-42214285D01*
X158190476Y-42023809D01*
X158190476Y-41880952D01*
X158238095Y-41690476D01*
X158285714Y-41595238D01*
X158380952Y-41500000D01*
X158523809Y-41452380D01*
X158619047Y-41452380D01*
X158761904Y-41500000D01*
X158809523Y-41547619D01*
X159523809Y-41452380D02*
X159523809Y-42166666D01*
X159476190Y-42309523D01*
X159380952Y-42404761D01*
X159238095Y-42452380D01*
X159142857Y-42452380D01*
X160476190Y-42452380D02*
X160000000Y-42452380D01*
X160000000Y-41452380D01*
X161380952Y-42357142D02*
X161333333Y-42404761D01*
X161190476Y-42452380D01*
X161095238Y-42452380D01*
X160952380Y-42404761D01*
X160857142Y-42309523D01*
X160809523Y-42214285D01*
X160761904Y-42023809D01*
X160761904Y-41880952D01*
X160809523Y-41690476D01*
X160857142Y-41595238D01*
X160952380Y-41500000D01*
X161095238Y-41452380D01*
X161190476Y-41452380D01*
X161333333Y-41500000D01*
X161380952Y-41547619D01*
X162095238Y-41452380D02*
X162095238Y-42166666D01*
X162047619Y-42309523D01*
X161952380Y-42404761D01*
X161809523Y-42452380D01*
X161714285Y-42452380D01*
X163047619Y-42452380D02*
X162571428Y-42452380D01*
X162571428Y-41452380D01*
X163952380Y-42357142D02*
X163904761Y-42404761D01*
X163761904Y-42452380D01*
X163666666Y-42452380D01*
X163523809Y-42404761D01*
X163428571Y-42309523D01*
X163380952Y-42214285D01*
X163333333Y-42023809D01*
X163333333Y-41880952D01*
X163380952Y-41690476D01*
X163428571Y-41595238D01*
X163523809Y-41500000D01*
X163666666Y-41452380D01*
X163761904Y-41452380D01*
X163904761Y-41500000D01*
X163952380Y-41547619D01*
D11*
%TO.C,J1*%
X132670000Y-43310000D02*
X145490000Y-43310000D01*
X145490000Y-43310000D02*
X145490000Y-40650000D01*
X145490000Y-40650000D02*
X132670000Y-40650000D01*
X132670000Y-40650000D02*
X132670000Y-43310000D01*
X133620000Y-40650000D02*
X133620000Y-34650000D01*
X133620000Y-34650000D02*
X134380000Y-34650000D01*
X134380000Y-34650000D02*
X134380000Y-40650000D01*
X133680000Y-40650000D02*
X133680000Y-34650000D01*
X133800000Y-40650000D02*
X133800000Y-34650000D01*
X133920000Y-40650000D02*
X133920000Y-34650000D01*
X134040000Y-40650000D02*
X134040000Y-34650000D01*
X134160000Y-40650000D02*
X134160000Y-34650000D01*
X134280000Y-40650000D02*
X134280000Y-34650000D01*
X133620000Y-43640000D02*
X133620000Y-43310000D01*
X134380000Y-43640000D02*
X134380000Y-43310000D01*
X135270000Y-43310000D02*
X135270000Y-40650000D01*
X136160000Y-40650000D02*
X136160000Y-34650000D01*
X136160000Y-34650000D02*
X136920000Y-34650000D01*
X136920000Y-34650000D02*
X136920000Y-40650000D01*
X136160000Y-43707071D02*
X136160000Y-43310000D01*
X136920000Y-43707071D02*
X136920000Y-43310000D01*
X137810000Y-43310000D02*
X137810000Y-40650000D01*
X138700000Y-40650000D02*
X138700000Y-34650000D01*
X138700000Y-34650000D02*
X139460000Y-34650000D01*
X139460000Y-34650000D02*
X139460000Y-40650000D01*
X138700000Y-43707071D02*
X138700000Y-43310000D01*
X139460000Y-43707071D02*
X139460000Y-43310000D01*
X140350000Y-43310000D02*
X140350000Y-40650000D01*
X141240000Y-40650000D02*
X141240000Y-34650000D01*
X141240000Y-34650000D02*
X142000000Y-34650000D01*
X142000000Y-34650000D02*
X142000000Y-40650000D01*
X141240000Y-43707071D02*
X141240000Y-43310000D01*
X142000000Y-43707071D02*
X142000000Y-43310000D01*
X142890000Y-43310000D02*
X142890000Y-40650000D01*
X143780000Y-40650000D02*
X143780000Y-34650000D01*
X143780000Y-34650000D02*
X144540000Y-34650000D01*
X144540000Y-34650000D02*
X144540000Y-40650000D01*
X143780000Y-43707071D02*
X143780000Y-43310000D01*
X144540000Y-43707071D02*
X144540000Y-43310000D01*
X134000000Y-46020000D02*
X132730000Y-46020000D01*
X132730000Y-46020000D02*
X132730000Y-44750000D01*
%TO.C,J6*%
X166610000Y-49610000D02*
X166610000Y-48000000D01*
X165000000Y-49610000D02*
X166610000Y-49610000D01*
X152300000Y-32990000D02*
X152300000Y-34490000D01*
X153940000Y-32990000D02*
X152300000Y-32990000D01*
X153940000Y-34490000D02*
X153940000Y-32990000D01*
X156260000Y-32990000D02*
X156260000Y-34490000D01*
X157900000Y-32990000D02*
X156260000Y-32990000D01*
X157900000Y-34490000D02*
X157900000Y-32990000D01*
X160220000Y-32990000D02*
X160220000Y-34490000D01*
X161860000Y-32990000D02*
X160220000Y-32990000D01*
X161860000Y-34490000D02*
X161860000Y-32990000D01*
X164180000Y-32990000D02*
X164180000Y-34490000D01*
X165820000Y-32990000D02*
X164180000Y-32990000D01*
X165820000Y-34490000D02*
X165820000Y-32990000D01*
X167060000Y-40690000D02*
X167060000Y-44110000D01*
X166010000Y-40690000D02*
X167060000Y-40690000D01*
X166010000Y-34490000D02*
X166010000Y-40690000D01*
X152110000Y-34490000D02*
X166010000Y-34490000D01*
X152110000Y-40690000D02*
X152110000Y-34490000D01*
X151060000Y-40690000D02*
X152110000Y-40690000D01*
X151060000Y-44110000D02*
X151060000Y-40690000D01*
X167060000Y-44110000D02*
X151060000Y-44110000D01*
%TD*%
M02*
