%TF.GenerationSoftware,KiCad,Pcbnew,(5.1.9-0-10_14)*%
%TF.CreationDate,2021-04-02T13:04:38+02:00*%
%TF.ProjectId,W-DAC Piggy Board,572d4441-4320-4506-9967-677920426f61,rev?*%
%TF.SameCoordinates,Original*%
%TF.FileFunction,Copper,L2,Inr*%
%TF.FilePolarity,Positive*%
%FSLAX46Y46*%
G04 Gerber Fmt 4.6, Leading zero omitted, Abs format (unit mm)*
G04 Created by KiCad (PCBNEW (5.1.9-0-10_14)) date 2021-04-02 13:04:38*
%MOMM*%
%LPD*%
G01*
G04 APERTURE LIST*
%TA.AperFunction,ComponentPad*%
%ADD10O,1.700000X1.700000*%
%TD*%
%TA.AperFunction,ComponentPad*%
%ADD11R,1.700000X1.700000*%
%TD*%
%TA.AperFunction,ComponentPad*%
%ADD12C,2.700000*%
%TD*%
%TA.AperFunction,ViaPad*%
%ADD13C,0.600000*%
%TD*%
%TA.AperFunction,Conductor*%
%ADD14C,0.254000*%
%TD*%
%TA.AperFunction,Conductor*%
%ADD15C,0.100000*%
%TD*%
%TA.AperFunction,Conductor*%
%ADD16C,0.190500*%
%TD*%
G04 APERTURE END LIST*
D10*
%TO.N,GND*%
%TO.C,J1*%
X144160000Y-44750000D03*
%TO.N,/SCL*%
X141620000Y-44750000D03*
%TO.N,/SDA*%
X139080000Y-44750000D03*
%TO.N,/IRQ*%
X136540000Y-44750000D03*
D11*
%TO.N,/Mute*%
X134000000Y-44750000D03*
%TD*%
D12*
%TO.N,+5VD*%
%TO.C,J6*%
X153120000Y-48000000D03*
%TO.N,GND*%
X157080000Y-48000000D03*
%TO.N,VEE*%
X161040000Y-48000000D03*
%TO.N,VCC*%
%TA.AperFunction,ComponentPad*%
G36*
G01*
X166350000Y-46900001D02*
X166350000Y-49099999D01*
G75*
G02*
X166099999Y-49350000I-250001J0D01*
G01*
X163900001Y-49350000D01*
G75*
G02*
X163650000Y-49099999I0J250001D01*
G01*
X163650000Y-46900001D01*
G75*
G02*
X163900001Y-46650000I250001J0D01*
G01*
X166099999Y-46650000D01*
G75*
G02*
X166350000Y-46900001I0J-250001D01*
G01*
G37*
%TD.AperFunction*%
%TD*%
D10*
%TO.N,/Rp*%
%TO.C,J5*%
X172920000Y-137780000D03*
%TO.N,/Rn*%
X172920000Y-135240000D03*
%TO.N,GND*%
X172920000Y-132700000D03*
%TO.N,Net-(J5-Pad7)*%
X172920000Y-130160000D03*
%TO.N,Net-(J5-Pad6)*%
X172920000Y-127620000D03*
%TO.N,Net-(J5-Pad5)*%
X172920000Y-125080000D03*
%TO.N,/Mute*%
X172920000Y-122540000D03*
%TO.N,GND*%
X172920000Y-120000000D03*
%TO.N,+5VD*%
X172920000Y-117460000D03*
D11*
%TO.N,GND*%
X172920000Y-114920000D03*
%TD*%
D10*
%TO.N,/Lp*%
%TO.C,J2*%
X127200000Y-137780000D03*
%TO.N,/Ln*%
X127200000Y-135240000D03*
%TO.N,GND*%
X127200000Y-132700000D03*
%TO.N,VEE*%
X127200000Y-130160000D03*
%TO.N,VCC*%
X127200000Y-127620000D03*
%TO.N,GND*%
X127200000Y-125080000D03*
%TO.N,Net-(J2-Pad2)*%
X127200000Y-122540000D03*
D11*
%TO.N,GND*%
X127200000Y-120000000D03*
%TD*%
D10*
%TO.N,/Rp*%
%TO.C,J4*%
X172800000Y-42220000D03*
%TO.N,/Rn*%
X172800000Y-44760000D03*
%TO.N,GND*%
X172800000Y-47300000D03*
%TO.N,VEE*%
X172800000Y-49840000D03*
%TO.N,VCC*%
X172800000Y-52380000D03*
%TO.N,GND*%
X172800000Y-54920000D03*
%TO.N,Net-(J4-Pad2)*%
X172800000Y-57460000D03*
D11*
%TO.N,GND*%
X172800000Y-60000000D03*
%TD*%
D10*
%TO.N,/Lp*%
%TO.C,J3*%
X127080000Y-42220000D03*
%TO.N,/Ln*%
X127080000Y-44760000D03*
%TO.N,GND*%
X127080000Y-47300000D03*
%TO.N,/SCL*%
X127080000Y-49840000D03*
%TO.N,/SDA*%
X127080000Y-52380000D03*
%TO.N,/IRQ*%
X127080000Y-54920000D03*
%TO.N,/Mute*%
X127080000Y-57460000D03*
%TO.N,GND*%
X127080000Y-60000000D03*
%TO.N,+5VD*%
X127080000Y-62540000D03*
D11*
%TO.N,GND*%
X127080000Y-65080000D03*
%TD*%
D13*
%TO.N,/SCL*%
X141620000Y-49835000D03*
%TO.N,/SDA*%
X139080000Y-52380000D03*
%TO.N,/IRQ*%
X136540000Y-54915000D03*
%TO.N,/Mute*%
X134000000Y-57455000D03*
%TD*%
D14*
%TO.N,GND*%
X126295283Y-41263820D02*
X126123820Y-41435283D01*
X125989102Y-41636903D01*
X125896307Y-41860931D01*
X125849000Y-42098757D01*
X125849000Y-42341243D01*
X125896307Y-42579069D01*
X125989102Y-42803097D01*
X126123820Y-43004717D01*
X126295283Y-43176180D01*
X126496903Y-43310898D01*
X126720931Y-43403693D01*
X126958757Y-43451000D01*
X127201243Y-43451000D01*
X127439069Y-43403693D01*
X127663097Y-43310898D01*
X127864717Y-43176180D01*
X128036180Y-43004717D01*
X128170898Y-42803097D01*
X128263693Y-42579069D01*
X128311000Y-42341243D01*
X128311000Y-42098757D01*
X128263693Y-41860931D01*
X128170898Y-41636903D01*
X128036180Y-41435283D01*
X127864717Y-41263820D01*
X127703353Y-41156000D01*
X172176647Y-41156000D01*
X172015283Y-41263820D01*
X171843820Y-41435283D01*
X171709102Y-41636903D01*
X171616307Y-41860931D01*
X171569000Y-42098757D01*
X171569000Y-42341243D01*
X171616307Y-42579069D01*
X171709102Y-42803097D01*
X171843820Y-43004717D01*
X172015283Y-43176180D01*
X172216903Y-43310898D01*
X172440931Y-43403693D01*
X172678757Y-43451000D01*
X172921243Y-43451000D01*
X173159069Y-43403693D01*
X173383097Y-43310898D01*
X173584717Y-43176180D01*
X173756180Y-43004717D01*
X173890898Y-42803097D01*
X173983693Y-42579069D01*
X174031000Y-42341243D01*
X174031000Y-42098757D01*
X173983693Y-41860931D01*
X173890898Y-41636903D01*
X173756180Y-41435283D01*
X173584717Y-41263820D01*
X173423353Y-41156000D01*
X174480147Y-41156000D01*
X174517881Y-41159700D01*
X174535078Y-41164892D01*
X174550943Y-41173328D01*
X174564861Y-41184680D01*
X174576317Y-41198528D01*
X174584861Y-41214330D01*
X174590173Y-41231489D01*
X174594001Y-41267910D01*
X174594000Y-138730149D01*
X174590301Y-138767878D01*
X174585107Y-138785079D01*
X174576672Y-138800944D01*
X174565322Y-138814860D01*
X174551472Y-138826318D01*
X174535672Y-138834861D01*
X174518511Y-138840173D01*
X174482099Y-138844000D01*
X173543353Y-138844000D01*
X173704717Y-138736180D01*
X173876180Y-138564717D01*
X174010898Y-138363097D01*
X174103693Y-138139069D01*
X174151000Y-137901243D01*
X174151000Y-137658757D01*
X174103693Y-137420931D01*
X174010898Y-137196903D01*
X173876180Y-136995283D01*
X173704717Y-136823820D01*
X173503097Y-136689102D01*
X173279069Y-136596307D01*
X173041243Y-136549000D01*
X172798757Y-136549000D01*
X172560931Y-136596307D01*
X172336903Y-136689102D01*
X172135283Y-136823820D01*
X171963820Y-136995283D01*
X171829102Y-137196903D01*
X171736307Y-137420931D01*
X171728045Y-137462465D01*
X171727347Y-137461609D01*
X171665145Y-137386420D01*
X171638995Y-137360452D01*
X171613291Y-137334204D01*
X171608929Y-137330595D01*
X171608921Y-137330587D01*
X171608912Y-137330581D01*
X171533302Y-137268914D01*
X171502658Y-137248553D01*
X171472286Y-137227758D01*
X171467299Y-137225061D01*
X171381138Y-137179249D01*
X171347102Y-137165221D01*
X171313299Y-137150733D01*
X171307884Y-137149056D01*
X171214466Y-137120851D01*
X171178345Y-137113699D01*
X171142372Y-137106053D01*
X171136743Y-137105461D01*
X171136738Y-137105460D01*
X171136734Y-137105460D01*
X171039617Y-137095938D01*
X170982122Y-137090301D01*
X170964921Y-137085107D01*
X170949056Y-137076672D01*
X170935140Y-137065322D01*
X170923682Y-137051472D01*
X170915139Y-137035672D01*
X170909827Y-137018511D01*
X170906000Y-136982099D01*
X170906000Y-135118757D01*
X171689000Y-135118757D01*
X171689000Y-135361243D01*
X171736307Y-135599069D01*
X171829102Y-135823097D01*
X171963820Y-136024717D01*
X172135283Y-136196180D01*
X172336903Y-136330898D01*
X172560931Y-136423693D01*
X172798757Y-136471000D01*
X173041243Y-136471000D01*
X173279069Y-136423693D01*
X173503097Y-136330898D01*
X173704717Y-136196180D01*
X173876180Y-136024717D01*
X174010898Y-135823097D01*
X174103693Y-135599069D01*
X174151000Y-135361243D01*
X174151000Y-135118757D01*
X174103693Y-134880931D01*
X174010898Y-134656903D01*
X173876180Y-134455283D01*
X173704717Y-134283820D01*
X173503097Y-134149102D01*
X173279069Y-134056307D01*
X173041243Y-134009000D01*
X172798757Y-134009000D01*
X172560931Y-134056307D01*
X172336903Y-134149102D01*
X172135283Y-134283820D01*
X171963820Y-134455283D01*
X171829102Y-134656903D01*
X171736307Y-134880931D01*
X171689000Y-135118757D01*
X170906000Y-135118757D01*
X170906000Y-130038757D01*
X171689000Y-130038757D01*
X171689000Y-130281243D01*
X171736307Y-130519069D01*
X171829102Y-130743097D01*
X171963820Y-130944717D01*
X172135283Y-131116180D01*
X172336903Y-131250898D01*
X172560931Y-131343693D01*
X172798757Y-131391000D01*
X173041243Y-131391000D01*
X173279069Y-131343693D01*
X173503097Y-131250898D01*
X173704717Y-131116180D01*
X173876180Y-130944717D01*
X174010898Y-130743097D01*
X174103693Y-130519069D01*
X174151000Y-130281243D01*
X174151000Y-130038757D01*
X174103693Y-129800931D01*
X174010898Y-129576903D01*
X173876180Y-129375283D01*
X173704717Y-129203820D01*
X173503097Y-129069102D01*
X173279069Y-128976307D01*
X173041243Y-128929000D01*
X172798757Y-128929000D01*
X172560931Y-128976307D01*
X172336903Y-129069102D01*
X172135283Y-129203820D01*
X171963820Y-129375283D01*
X171829102Y-129576903D01*
X171736307Y-129800931D01*
X171689000Y-130038757D01*
X170906000Y-130038757D01*
X170906000Y-127498757D01*
X171689000Y-127498757D01*
X171689000Y-127741243D01*
X171736307Y-127979069D01*
X171829102Y-128203097D01*
X171963820Y-128404717D01*
X172135283Y-128576180D01*
X172336903Y-128710898D01*
X172560931Y-128803693D01*
X172798757Y-128851000D01*
X173041243Y-128851000D01*
X173279069Y-128803693D01*
X173503097Y-128710898D01*
X173704717Y-128576180D01*
X173876180Y-128404717D01*
X174010898Y-128203097D01*
X174103693Y-127979069D01*
X174151000Y-127741243D01*
X174151000Y-127498757D01*
X174103693Y-127260931D01*
X174010898Y-127036903D01*
X173876180Y-126835283D01*
X173704717Y-126663820D01*
X173503097Y-126529102D01*
X173279069Y-126436307D01*
X173041243Y-126389000D01*
X172798757Y-126389000D01*
X172560931Y-126436307D01*
X172336903Y-126529102D01*
X172135283Y-126663820D01*
X171963820Y-126835283D01*
X171829102Y-127036903D01*
X171736307Y-127260931D01*
X171689000Y-127498757D01*
X170906000Y-127498757D01*
X170906000Y-124958757D01*
X171689000Y-124958757D01*
X171689000Y-125201243D01*
X171736307Y-125439069D01*
X171829102Y-125663097D01*
X171963820Y-125864717D01*
X172135283Y-126036180D01*
X172336903Y-126170898D01*
X172560931Y-126263693D01*
X172798757Y-126311000D01*
X173041243Y-126311000D01*
X173279069Y-126263693D01*
X173503097Y-126170898D01*
X173704717Y-126036180D01*
X173876180Y-125864717D01*
X174010898Y-125663097D01*
X174103693Y-125439069D01*
X174151000Y-125201243D01*
X174151000Y-124958757D01*
X174103693Y-124720931D01*
X174010898Y-124496903D01*
X173876180Y-124295283D01*
X173704717Y-124123820D01*
X173503097Y-123989102D01*
X173279069Y-123896307D01*
X173041243Y-123849000D01*
X172798757Y-123849000D01*
X172560931Y-123896307D01*
X172336903Y-123989102D01*
X172135283Y-124123820D01*
X171963820Y-124295283D01*
X171829102Y-124496903D01*
X171736307Y-124720931D01*
X171689000Y-124958757D01*
X170906000Y-124958757D01*
X170906000Y-122418757D01*
X171689000Y-122418757D01*
X171689000Y-122661243D01*
X171736307Y-122899069D01*
X171829102Y-123123097D01*
X171963820Y-123324717D01*
X172135283Y-123496180D01*
X172336903Y-123630898D01*
X172560931Y-123723693D01*
X172798757Y-123771000D01*
X173041243Y-123771000D01*
X173279069Y-123723693D01*
X173503097Y-123630898D01*
X173704717Y-123496180D01*
X173876180Y-123324717D01*
X174010898Y-123123097D01*
X174103693Y-122899069D01*
X174151000Y-122661243D01*
X174151000Y-122418757D01*
X174103693Y-122180931D01*
X174010898Y-121956903D01*
X173876180Y-121755283D01*
X173704717Y-121583820D01*
X173503097Y-121449102D01*
X173279069Y-121356307D01*
X173041243Y-121309000D01*
X172798757Y-121309000D01*
X172560931Y-121356307D01*
X172336903Y-121449102D01*
X172135283Y-121583820D01*
X171963820Y-121755283D01*
X171829102Y-121956903D01*
X171736307Y-122180931D01*
X171689000Y-122418757D01*
X170906000Y-122418757D01*
X170906000Y-117338757D01*
X171689000Y-117338757D01*
X171689000Y-117581243D01*
X171736307Y-117819069D01*
X171829102Y-118043097D01*
X171963820Y-118244717D01*
X172135283Y-118416180D01*
X172336903Y-118550898D01*
X172560931Y-118643693D01*
X172798757Y-118691000D01*
X173041243Y-118691000D01*
X173279069Y-118643693D01*
X173503097Y-118550898D01*
X173704717Y-118416180D01*
X173876180Y-118244717D01*
X174010898Y-118043097D01*
X174103693Y-117819069D01*
X174151000Y-117581243D01*
X174151000Y-117338757D01*
X174103693Y-117100931D01*
X174010898Y-116876903D01*
X173876180Y-116675283D01*
X173704717Y-116503820D01*
X173503097Y-116369102D01*
X173279069Y-116276307D01*
X173041243Y-116229000D01*
X172798757Y-116229000D01*
X172560931Y-116276307D01*
X172336903Y-116369102D01*
X172135283Y-116503820D01*
X171963820Y-116675283D01*
X171829102Y-116876903D01*
X171736307Y-117100931D01*
X171689000Y-117338757D01*
X170906000Y-117338757D01*
X170906000Y-61980059D01*
X170904262Y-61962411D01*
X170904305Y-61956221D01*
X170903752Y-61950579D01*
X170883351Y-61756482D01*
X170875944Y-61720396D01*
X170869056Y-61684292D01*
X170867418Y-61678865D01*
X170809706Y-61492427D01*
X170795445Y-61458500D01*
X170781662Y-61424387D01*
X170779001Y-61419381D01*
X170686176Y-61247704D01*
X170665558Y-61217137D01*
X170645448Y-61186406D01*
X170641866Y-61182012D01*
X170517462Y-61031634D01*
X170491311Y-61005664D01*
X170465606Y-60979416D01*
X170461244Y-60975807D01*
X170461238Y-60975801D01*
X170461231Y-60975797D01*
X170309996Y-60852452D01*
X170279331Y-60832078D01*
X170248984Y-60811299D01*
X170244002Y-60808605D01*
X170243998Y-60808602D01*
X170243994Y-60808600D01*
X170071675Y-60716977D01*
X170037640Y-60702949D01*
X170003832Y-60688459D01*
X169998417Y-60686782D01*
X169811581Y-60630373D01*
X169775411Y-60623211D01*
X169739491Y-60615576D01*
X169733864Y-60614984D01*
X169733853Y-60614982D01*
X169733843Y-60614982D01*
X169539619Y-60595938D01*
X169539618Y-60595938D01*
X169519941Y-60594000D01*
X155381000Y-60594000D01*
X155381000Y-57338757D01*
X171569000Y-57338757D01*
X171569000Y-57581243D01*
X171616307Y-57819069D01*
X171709102Y-58043097D01*
X171843820Y-58244717D01*
X172015283Y-58416180D01*
X172216903Y-58550898D01*
X172440931Y-58643693D01*
X172678757Y-58691000D01*
X172921243Y-58691000D01*
X173159069Y-58643693D01*
X173383097Y-58550898D01*
X173584717Y-58416180D01*
X173756180Y-58244717D01*
X173890898Y-58043097D01*
X173983693Y-57819069D01*
X174031000Y-57581243D01*
X174031000Y-57338757D01*
X173983693Y-57100931D01*
X173890898Y-56876903D01*
X173756180Y-56675283D01*
X173584717Y-56503820D01*
X173383097Y-56369102D01*
X173159069Y-56276307D01*
X172921243Y-56229000D01*
X172678757Y-56229000D01*
X172440931Y-56276307D01*
X172216903Y-56369102D01*
X172015283Y-56503820D01*
X171843820Y-56675283D01*
X171709102Y-56876903D01*
X171616307Y-57100931D01*
X171569000Y-57338757D01*
X155381000Y-57338757D01*
X155381000Y-52258757D01*
X171569000Y-52258757D01*
X171569000Y-52501243D01*
X171616307Y-52739069D01*
X171709102Y-52963097D01*
X171843820Y-53164717D01*
X172015283Y-53336180D01*
X172216903Y-53470898D01*
X172440931Y-53563693D01*
X172678757Y-53611000D01*
X172921243Y-53611000D01*
X173159069Y-53563693D01*
X173383097Y-53470898D01*
X173584717Y-53336180D01*
X173756180Y-53164717D01*
X173890898Y-52963097D01*
X173983693Y-52739069D01*
X174031000Y-52501243D01*
X174031000Y-52258757D01*
X173983693Y-52020931D01*
X173890898Y-51796903D01*
X173756180Y-51595283D01*
X173584717Y-51423820D01*
X173383097Y-51289102D01*
X173159069Y-51196307D01*
X172921243Y-51149000D01*
X172678757Y-51149000D01*
X172440931Y-51196307D01*
X172216903Y-51289102D01*
X172015283Y-51423820D01*
X171843820Y-51595283D01*
X171709102Y-51796903D01*
X171616307Y-52020931D01*
X171569000Y-52258757D01*
X155381000Y-52258757D01*
X155381000Y-47829511D01*
X159309000Y-47829511D01*
X159309000Y-48170489D01*
X159375521Y-48504914D01*
X159506007Y-48819936D01*
X159695444Y-49103448D01*
X159936552Y-49344556D01*
X160220064Y-49533993D01*
X160535086Y-49664479D01*
X160869511Y-49731000D01*
X161210489Y-49731000D01*
X161544914Y-49664479D01*
X161859936Y-49533993D01*
X162143448Y-49344556D01*
X162384556Y-49103448D01*
X162573993Y-48819936D01*
X162704479Y-48504914D01*
X162771000Y-48170489D01*
X162771000Y-47829511D01*
X162704479Y-47495086D01*
X162573993Y-47180064D01*
X162386861Y-46900001D01*
X163267157Y-46900001D01*
X163267157Y-49099999D01*
X163279317Y-49223461D01*
X163315329Y-49342178D01*
X163373810Y-49451588D01*
X163452513Y-49547487D01*
X163548412Y-49626190D01*
X163657822Y-49684671D01*
X163776539Y-49720683D01*
X163900001Y-49732843D01*
X166099999Y-49732843D01*
X166223461Y-49720683D01*
X166229810Y-49718757D01*
X171569000Y-49718757D01*
X171569000Y-49961243D01*
X171616307Y-50199069D01*
X171709102Y-50423097D01*
X171843820Y-50624717D01*
X172015283Y-50796180D01*
X172216903Y-50930898D01*
X172440931Y-51023693D01*
X172678757Y-51071000D01*
X172921243Y-51071000D01*
X173159069Y-51023693D01*
X173383097Y-50930898D01*
X173584717Y-50796180D01*
X173756180Y-50624717D01*
X173890898Y-50423097D01*
X173983693Y-50199069D01*
X174031000Y-49961243D01*
X174031000Y-49718757D01*
X173983693Y-49480931D01*
X173890898Y-49256903D01*
X173756180Y-49055283D01*
X173584717Y-48883820D01*
X173383097Y-48749102D01*
X173159069Y-48656307D01*
X172921243Y-48609000D01*
X172678757Y-48609000D01*
X172440931Y-48656307D01*
X172216903Y-48749102D01*
X172015283Y-48883820D01*
X171843820Y-49055283D01*
X171709102Y-49256903D01*
X171616307Y-49480931D01*
X171569000Y-49718757D01*
X166229810Y-49718757D01*
X166342178Y-49684671D01*
X166451588Y-49626190D01*
X166547487Y-49547487D01*
X166626190Y-49451588D01*
X166684671Y-49342178D01*
X166720683Y-49223461D01*
X166732843Y-49099999D01*
X166732843Y-46900001D01*
X166720683Y-46776539D01*
X166684671Y-46657822D01*
X166626190Y-46548412D01*
X166547487Y-46452513D01*
X166451588Y-46373810D01*
X166342178Y-46315329D01*
X166223461Y-46279317D01*
X166099999Y-46267157D01*
X163900001Y-46267157D01*
X163776539Y-46279317D01*
X163657822Y-46315329D01*
X163548412Y-46373810D01*
X163452513Y-46452513D01*
X163373810Y-46548412D01*
X163315329Y-46657822D01*
X163279317Y-46776539D01*
X163267157Y-46900001D01*
X162386861Y-46900001D01*
X162384556Y-46896552D01*
X162143448Y-46655444D01*
X161859936Y-46466007D01*
X161544914Y-46335521D01*
X161210489Y-46269000D01*
X160869511Y-46269000D01*
X160535086Y-46335521D01*
X160220064Y-46466007D01*
X159936552Y-46655444D01*
X159695444Y-46896552D01*
X159506007Y-47180064D01*
X159375521Y-47495086D01*
X159309000Y-47829511D01*
X155381000Y-47829511D01*
X155381000Y-46758000D01*
X155377740Y-46708269D01*
X155360430Y-46576789D01*
X155334689Y-46480719D01*
X155283940Y-46358199D01*
X155234208Y-46272061D01*
X155153477Y-46166851D01*
X155083149Y-46096523D01*
X154977939Y-46015792D01*
X154891801Y-45966060D01*
X154769281Y-45915311D01*
X154673211Y-45889570D01*
X154541731Y-45872260D01*
X154492000Y-45869000D01*
X151758000Y-45869000D01*
X151708269Y-45872260D01*
X151576789Y-45889570D01*
X151480719Y-45915311D01*
X151358199Y-45966060D01*
X151272061Y-46015792D01*
X151166851Y-46096523D01*
X151096523Y-46166851D01*
X151015792Y-46272061D01*
X150966060Y-46358199D01*
X150915311Y-46480719D01*
X150889570Y-46576789D01*
X150872260Y-46708269D01*
X150869000Y-46758000D01*
X150869000Y-58467031D01*
X150861498Y-58524017D01*
X150849137Y-58553857D01*
X150829478Y-58579478D01*
X150803857Y-58599137D01*
X150774017Y-58611498D01*
X150717031Y-58619000D01*
X128758000Y-58619000D01*
X128708269Y-58622260D01*
X128576789Y-58639570D01*
X128480719Y-58665311D01*
X128358199Y-58716060D01*
X128272061Y-58765792D01*
X128166851Y-58846523D01*
X128096523Y-58916851D01*
X128015792Y-59022061D01*
X127966060Y-59108199D01*
X127915311Y-59230719D01*
X127889570Y-59326789D01*
X127872260Y-59458269D01*
X127869000Y-59508000D01*
X127869000Y-60717031D01*
X127861498Y-60774017D01*
X127849137Y-60803857D01*
X127829478Y-60829478D01*
X127803857Y-60849137D01*
X127774017Y-60861498D01*
X127717031Y-60869000D01*
X126508000Y-60869000D01*
X126458269Y-60872260D01*
X126326789Y-60889570D01*
X126230719Y-60915311D01*
X126108199Y-60966060D01*
X126022061Y-61015792D01*
X125916851Y-61096523D01*
X125846523Y-61166851D01*
X125765792Y-61272061D01*
X125716060Y-61358199D01*
X125665311Y-61480719D01*
X125639570Y-61576789D01*
X125622260Y-61708269D01*
X125619000Y-61758000D01*
X125619000Y-63492000D01*
X125622260Y-63541731D01*
X125639570Y-63673211D01*
X125665311Y-63769281D01*
X125716060Y-63891801D01*
X125765792Y-63977939D01*
X125846523Y-64083149D01*
X125916851Y-64153477D01*
X126022061Y-64234208D01*
X126108199Y-64283940D01*
X126230719Y-64334689D01*
X126326789Y-64360430D01*
X126458269Y-64377740D01*
X126508000Y-64381000D01*
X129094000Y-64381000D01*
X129094001Y-136980139D01*
X129090301Y-137017878D01*
X129085107Y-137035079D01*
X129076672Y-137050944D01*
X129065322Y-137064860D01*
X129051472Y-137076318D01*
X129035672Y-137084861D01*
X129018511Y-137090173D01*
X128965689Y-137095725D01*
X128959714Y-137095683D01*
X128954072Y-137096236D01*
X128857023Y-137106436D01*
X128820957Y-137113839D01*
X128784831Y-137120731D01*
X128779404Y-137122369D01*
X128686185Y-137151225D01*
X128652238Y-137165495D01*
X128618142Y-137179271D01*
X128613143Y-137181928D01*
X128613139Y-137181930D01*
X128613136Y-137181932D01*
X128527299Y-137228345D01*
X128496793Y-137248922D01*
X128466003Y-137269070D01*
X128461609Y-137272653D01*
X128386420Y-137334855D01*
X128360452Y-137361005D01*
X128359327Y-137362106D01*
X128290898Y-137196903D01*
X128156180Y-136995283D01*
X127984717Y-136823820D01*
X127783097Y-136689102D01*
X127559069Y-136596307D01*
X127321243Y-136549000D01*
X127078757Y-136549000D01*
X126840931Y-136596307D01*
X126616903Y-136689102D01*
X126415283Y-136823820D01*
X126243820Y-136995283D01*
X126109102Y-137196903D01*
X126016307Y-137420931D01*
X125969000Y-137658757D01*
X125969000Y-137901243D01*
X126016307Y-138139069D01*
X126109102Y-138363097D01*
X126243820Y-138564717D01*
X126415283Y-138736180D01*
X126576647Y-138844000D01*
X125519851Y-138844000D01*
X125482122Y-138840301D01*
X125464921Y-138835107D01*
X125449056Y-138826672D01*
X125435140Y-138815322D01*
X125423682Y-138801472D01*
X125415139Y-138785672D01*
X125409827Y-138768511D01*
X125406000Y-138732099D01*
X125406000Y-135118757D01*
X125969000Y-135118757D01*
X125969000Y-135361243D01*
X126016307Y-135599069D01*
X126109102Y-135823097D01*
X126243820Y-136024717D01*
X126415283Y-136196180D01*
X126616903Y-136330898D01*
X126840931Y-136423693D01*
X127078757Y-136471000D01*
X127321243Y-136471000D01*
X127559069Y-136423693D01*
X127783097Y-136330898D01*
X127984717Y-136196180D01*
X128156180Y-136024717D01*
X128290898Y-135823097D01*
X128383693Y-135599069D01*
X128431000Y-135361243D01*
X128431000Y-135118757D01*
X128383693Y-134880931D01*
X128290898Y-134656903D01*
X128156180Y-134455283D01*
X127984717Y-134283820D01*
X127783097Y-134149102D01*
X127559069Y-134056307D01*
X127321243Y-134009000D01*
X127078757Y-134009000D01*
X126840931Y-134056307D01*
X126616903Y-134149102D01*
X126415283Y-134283820D01*
X126243820Y-134455283D01*
X126109102Y-134656903D01*
X126016307Y-134880931D01*
X125969000Y-135118757D01*
X125406000Y-135118757D01*
X125406000Y-130038757D01*
X125969000Y-130038757D01*
X125969000Y-130281243D01*
X126016307Y-130519069D01*
X126109102Y-130743097D01*
X126243820Y-130944717D01*
X126415283Y-131116180D01*
X126616903Y-131250898D01*
X126840931Y-131343693D01*
X127078757Y-131391000D01*
X127321243Y-131391000D01*
X127559069Y-131343693D01*
X127783097Y-131250898D01*
X127984717Y-131116180D01*
X128156180Y-130944717D01*
X128290898Y-130743097D01*
X128383693Y-130519069D01*
X128431000Y-130281243D01*
X128431000Y-130038757D01*
X128383693Y-129800931D01*
X128290898Y-129576903D01*
X128156180Y-129375283D01*
X127984717Y-129203820D01*
X127783097Y-129069102D01*
X127559069Y-128976307D01*
X127321243Y-128929000D01*
X127078757Y-128929000D01*
X126840931Y-128976307D01*
X126616903Y-129069102D01*
X126415283Y-129203820D01*
X126243820Y-129375283D01*
X126109102Y-129576903D01*
X126016307Y-129800931D01*
X125969000Y-130038757D01*
X125406000Y-130038757D01*
X125406000Y-127498757D01*
X125969000Y-127498757D01*
X125969000Y-127741243D01*
X126016307Y-127979069D01*
X126109102Y-128203097D01*
X126243820Y-128404717D01*
X126415283Y-128576180D01*
X126616903Y-128710898D01*
X126840931Y-128803693D01*
X127078757Y-128851000D01*
X127321243Y-128851000D01*
X127559069Y-128803693D01*
X127783097Y-128710898D01*
X127984717Y-128576180D01*
X128156180Y-128404717D01*
X128290898Y-128203097D01*
X128383693Y-127979069D01*
X128431000Y-127741243D01*
X128431000Y-127498757D01*
X128383693Y-127260931D01*
X128290898Y-127036903D01*
X128156180Y-126835283D01*
X127984717Y-126663820D01*
X127783097Y-126529102D01*
X127559069Y-126436307D01*
X127321243Y-126389000D01*
X127078757Y-126389000D01*
X126840931Y-126436307D01*
X126616903Y-126529102D01*
X126415283Y-126663820D01*
X126243820Y-126835283D01*
X126109102Y-127036903D01*
X126016307Y-127260931D01*
X125969000Y-127498757D01*
X125406000Y-127498757D01*
X125406000Y-122418757D01*
X125969000Y-122418757D01*
X125969000Y-122661243D01*
X126016307Y-122899069D01*
X126109102Y-123123097D01*
X126243820Y-123324717D01*
X126415283Y-123496180D01*
X126616903Y-123630898D01*
X126840931Y-123723693D01*
X127078757Y-123771000D01*
X127321243Y-123771000D01*
X127559069Y-123723693D01*
X127783097Y-123630898D01*
X127984717Y-123496180D01*
X128156180Y-123324717D01*
X128290898Y-123123097D01*
X128383693Y-122899069D01*
X128431000Y-122661243D01*
X128431000Y-122418757D01*
X128383693Y-122180931D01*
X128290898Y-121956903D01*
X128156180Y-121755283D01*
X127984717Y-121583820D01*
X127783097Y-121449102D01*
X127559069Y-121356307D01*
X127321243Y-121309000D01*
X127078757Y-121309000D01*
X126840931Y-121356307D01*
X126616903Y-121449102D01*
X126415283Y-121583820D01*
X126243820Y-121755283D01*
X126109102Y-121956903D01*
X126016307Y-122180931D01*
X125969000Y-122418757D01*
X125406000Y-122418757D01*
X125406000Y-57338757D01*
X125849000Y-57338757D01*
X125849000Y-57581243D01*
X125896307Y-57819069D01*
X125989102Y-58043097D01*
X126123820Y-58244717D01*
X126295283Y-58416180D01*
X126496903Y-58550898D01*
X126720931Y-58643693D01*
X126958757Y-58691000D01*
X127201243Y-58691000D01*
X127439069Y-58643693D01*
X127663097Y-58550898D01*
X127864717Y-58416180D01*
X128036180Y-58244717D01*
X128170898Y-58043097D01*
X128263693Y-57819069D01*
X128311000Y-57581243D01*
X128311000Y-57387927D01*
X133319000Y-57387927D01*
X133319000Y-57522073D01*
X133345171Y-57653640D01*
X133396506Y-57777574D01*
X133471033Y-57889112D01*
X133565888Y-57983967D01*
X133677426Y-58058494D01*
X133801360Y-58109829D01*
X133932927Y-58136000D01*
X134067073Y-58136000D01*
X134198640Y-58109829D01*
X134322574Y-58058494D01*
X134434112Y-57983967D01*
X134528967Y-57889112D01*
X134603494Y-57777574D01*
X134654829Y-57653640D01*
X134681000Y-57522073D01*
X134681000Y-57387927D01*
X134654829Y-57256360D01*
X134603494Y-57132426D01*
X134528967Y-57020888D01*
X134434112Y-56926033D01*
X134322574Y-56851506D01*
X134198640Y-56800171D01*
X134067073Y-56774000D01*
X133932927Y-56774000D01*
X133801360Y-56800171D01*
X133677426Y-56851506D01*
X133565888Y-56926033D01*
X133471033Y-57020888D01*
X133396506Y-57132426D01*
X133345171Y-57256360D01*
X133319000Y-57387927D01*
X128311000Y-57387927D01*
X128311000Y-57338757D01*
X128263693Y-57100931D01*
X128170898Y-56876903D01*
X128036180Y-56675283D01*
X127864717Y-56503820D01*
X127663097Y-56369102D01*
X127439069Y-56276307D01*
X127201243Y-56229000D01*
X126958757Y-56229000D01*
X126720931Y-56276307D01*
X126496903Y-56369102D01*
X126295283Y-56503820D01*
X126123820Y-56675283D01*
X125989102Y-56876903D01*
X125896307Y-57100931D01*
X125849000Y-57338757D01*
X125406000Y-57338757D01*
X125406000Y-54798757D01*
X125849000Y-54798757D01*
X125849000Y-55041243D01*
X125896307Y-55279069D01*
X125989102Y-55503097D01*
X126123820Y-55704717D01*
X126295283Y-55876180D01*
X126496903Y-56010898D01*
X126720931Y-56103693D01*
X126958757Y-56151000D01*
X127201243Y-56151000D01*
X127439069Y-56103693D01*
X127663097Y-56010898D01*
X127864717Y-55876180D01*
X128036180Y-55704717D01*
X128170898Y-55503097D01*
X128263693Y-55279069D01*
X128311000Y-55041243D01*
X128311000Y-54847927D01*
X135859000Y-54847927D01*
X135859000Y-54982073D01*
X135885171Y-55113640D01*
X135936506Y-55237574D01*
X136011033Y-55349112D01*
X136105888Y-55443967D01*
X136217426Y-55518494D01*
X136341360Y-55569829D01*
X136472927Y-55596000D01*
X136607073Y-55596000D01*
X136738640Y-55569829D01*
X136862574Y-55518494D01*
X136974112Y-55443967D01*
X137068967Y-55349112D01*
X137143494Y-55237574D01*
X137194829Y-55113640D01*
X137221000Y-54982073D01*
X137221000Y-54847927D01*
X137194829Y-54716360D01*
X137143494Y-54592426D01*
X137068967Y-54480888D01*
X136974112Y-54386033D01*
X136862574Y-54311506D01*
X136738640Y-54260171D01*
X136607073Y-54234000D01*
X136472927Y-54234000D01*
X136341360Y-54260171D01*
X136217426Y-54311506D01*
X136105888Y-54386033D01*
X136011033Y-54480888D01*
X135936506Y-54592426D01*
X135885171Y-54716360D01*
X135859000Y-54847927D01*
X128311000Y-54847927D01*
X128311000Y-54798757D01*
X128263693Y-54560931D01*
X128170898Y-54336903D01*
X128036180Y-54135283D01*
X127864717Y-53963820D01*
X127663097Y-53829102D01*
X127439069Y-53736307D01*
X127201243Y-53689000D01*
X126958757Y-53689000D01*
X126720931Y-53736307D01*
X126496903Y-53829102D01*
X126295283Y-53963820D01*
X126123820Y-54135283D01*
X125989102Y-54336903D01*
X125896307Y-54560931D01*
X125849000Y-54798757D01*
X125406000Y-54798757D01*
X125406000Y-52258757D01*
X125849000Y-52258757D01*
X125849000Y-52501243D01*
X125896307Y-52739069D01*
X125989102Y-52963097D01*
X126123820Y-53164717D01*
X126295283Y-53336180D01*
X126496903Y-53470898D01*
X126720931Y-53563693D01*
X126958757Y-53611000D01*
X127201243Y-53611000D01*
X127439069Y-53563693D01*
X127663097Y-53470898D01*
X127864717Y-53336180D01*
X128036180Y-53164717D01*
X128170898Y-52963097D01*
X128263693Y-52739069D01*
X128311000Y-52501243D01*
X128311000Y-52312927D01*
X138399000Y-52312927D01*
X138399000Y-52447073D01*
X138425171Y-52578640D01*
X138476506Y-52702574D01*
X138551033Y-52814112D01*
X138645888Y-52908967D01*
X138757426Y-52983494D01*
X138881360Y-53034829D01*
X139012927Y-53061000D01*
X139147073Y-53061000D01*
X139278640Y-53034829D01*
X139402574Y-52983494D01*
X139514112Y-52908967D01*
X139608967Y-52814112D01*
X139683494Y-52702574D01*
X139734829Y-52578640D01*
X139761000Y-52447073D01*
X139761000Y-52312927D01*
X139734829Y-52181360D01*
X139683494Y-52057426D01*
X139608967Y-51945888D01*
X139514112Y-51851033D01*
X139402574Y-51776506D01*
X139278640Y-51725171D01*
X139147073Y-51699000D01*
X139012927Y-51699000D01*
X138881360Y-51725171D01*
X138757426Y-51776506D01*
X138645888Y-51851033D01*
X138551033Y-51945888D01*
X138476506Y-52057426D01*
X138425171Y-52181360D01*
X138399000Y-52312927D01*
X128311000Y-52312927D01*
X128311000Y-52258757D01*
X128263693Y-52020931D01*
X128170898Y-51796903D01*
X128036180Y-51595283D01*
X127864717Y-51423820D01*
X127663097Y-51289102D01*
X127439069Y-51196307D01*
X127201243Y-51149000D01*
X126958757Y-51149000D01*
X126720931Y-51196307D01*
X126496903Y-51289102D01*
X126295283Y-51423820D01*
X126123820Y-51595283D01*
X125989102Y-51796903D01*
X125896307Y-52020931D01*
X125849000Y-52258757D01*
X125406000Y-52258757D01*
X125406000Y-49718757D01*
X125849000Y-49718757D01*
X125849000Y-49961243D01*
X125896307Y-50199069D01*
X125989102Y-50423097D01*
X126123820Y-50624717D01*
X126295283Y-50796180D01*
X126496903Y-50930898D01*
X126720931Y-51023693D01*
X126958757Y-51071000D01*
X127201243Y-51071000D01*
X127439069Y-51023693D01*
X127663097Y-50930898D01*
X127864717Y-50796180D01*
X128036180Y-50624717D01*
X128170898Y-50423097D01*
X128263693Y-50199069D01*
X128311000Y-49961243D01*
X128311000Y-49767927D01*
X140939000Y-49767927D01*
X140939000Y-49902073D01*
X140965171Y-50033640D01*
X141016506Y-50157574D01*
X141091033Y-50269112D01*
X141185888Y-50363967D01*
X141297426Y-50438494D01*
X141421360Y-50489829D01*
X141552927Y-50516000D01*
X141687073Y-50516000D01*
X141818640Y-50489829D01*
X141942574Y-50438494D01*
X142054112Y-50363967D01*
X142148967Y-50269112D01*
X142223494Y-50157574D01*
X142274829Y-50033640D01*
X142301000Y-49902073D01*
X142301000Y-49767927D01*
X142274829Y-49636360D01*
X142223494Y-49512426D01*
X142148967Y-49400888D01*
X142054112Y-49306033D01*
X141942574Y-49231506D01*
X141818640Y-49180171D01*
X141687073Y-49154000D01*
X141552927Y-49154000D01*
X141421360Y-49180171D01*
X141297426Y-49231506D01*
X141185888Y-49306033D01*
X141091033Y-49400888D01*
X141016506Y-49512426D01*
X140965171Y-49636360D01*
X140939000Y-49767927D01*
X128311000Y-49767927D01*
X128311000Y-49718757D01*
X128263693Y-49480931D01*
X128170898Y-49256903D01*
X128036180Y-49055283D01*
X127864717Y-48883820D01*
X127663097Y-48749102D01*
X127439069Y-48656307D01*
X127201243Y-48609000D01*
X126958757Y-48609000D01*
X126720931Y-48656307D01*
X126496903Y-48749102D01*
X126295283Y-48883820D01*
X126123820Y-49055283D01*
X125989102Y-49256903D01*
X125896307Y-49480931D01*
X125849000Y-49718757D01*
X125406000Y-49718757D01*
X125406000Y-44638757D01*
X125849000Y-44638757D01*
X125849000Y-44881243D01*
X125896307Y-45119069D01*
X125989102Y-45343097D01*
X126123820Y-45544717D01*
X126295283Y-45716180D01*
X126496903Y-45850898D01*
X126720931Y-45943693D01*
X126958757Y-45991000D01*
X127201243Y-45991000D01*
X127439069Y-45943693D01*
X127663097Y-45850898D01*
X127864717Y-45716180D01*
X128036180Y-45544717D01*
X128170898Y-45343097D01*
X128263693Y-45119069D01*
X128311000Y-44881243D01*
X128311000Y-44638757D01*
X128263693Y-44400931D01*
X128170898Y-44176903D01*
X128036180Y-43975283D01*
X127960897Y-43900000D01*
X132767157Y-43900000D01*
X132767157Y-45600000D01*
X132774513Y-45674689D01*
X132796299Y-45746508D01*
X132831678Y-45812696D01*
X132879289Y-45870711D01*
X132937304Y-45918322D01*
X133003492Y-45953701D01*
X133075311Y-45975487D01*
X133150000Y-45982843D01*
X134850000Y-45982843D01*
X134924689Y-45975487D01*
X134996508Y-45953701D01*
X135062696Y-45918322D01*
X135120711Y-45870711D01*
X135168322Y-45812696D01*
X135203701Y-45746508D01*
X135225487Y-45674689D01*
X135232843Y-45600000D01*
X135232843Y-44628757D01*
X135309000Y-44628757D01*
X135309000Y-44871243D01*
X135356307Y-45109069D01*
X135449102Y-45333097D01*
X135583820Y-45534717D01*
X135755283Y-45706180D01*
X135956903Y-45840898D01*
X136180931Y-45933693D01*
X136418757Y-45981000D01*
X136661243Y-45981000D01*
X136899069Y-45933693D01*
X137123097Y-45840898D01*
X137324717Y-45706180D01*
X137496180Y-45534717D01*
X137630898Y-45333097D01*
X137723693Y-45109069D01*
X137771000Y-44871243D01*
X137771000Y-44628757D01*
X137849000Y-44628757D01*
X137849000Y-44871243D01*
X137896307Y-45109069D01*
X137989102Y-45333097D01*
X138123820Y-45534717D01*
X138295283Y-45706180D01*
X138496903Y-45840898D01*
X138720931Y-45933693D01*
X138958757Y-45981000D01*
X139201243Y-45981000D01*
X139439069Y-45933693D01*
X139663097Y-45840898D01*
X139864717Y-45706180D01*
X140036180Y-45534717D01*
X140170898Y-45333097D01*
X140263693Y-45109069D01*
X140311000Y-44871243D01*
X140311000Y-44628757D01*
X140389000Y-44628757D01*
X140389000Y-44871243D01*
X140436307Y-45109069D01*
X140529102Y-45333097D01*
X140663820Y-45534717D01*
X140835283Y-45706180D01*
X141036903Y-45840898D01*
X141260931Y-45933693D01*
X141498757Y-45981000D01*
X141741243Y-45981000D01*
X141979069Y-45933693D01*
X142203097Y-45840898D01*
X142404717Y-45706180D01*
X142576180Y-45534717D01*
X142710898Y-45333097D01*
X142803693Y-45109069D01*
X142851000Y-44871243D01*
X142851000Y-44638757D01*
X171569000Y-44638757D01*
X171569000Y-44881243D01*
X171616307Y-45119069D01*
X171709102Y-45343097D01*
X171843820Y-45544717D01*
X172015283Y-45716180D01*
X172216903Y-45850898D01*
X172440931Y-45943693D01*
X172678757Y-45991000D01*
X172921243Y-45991000D01*
X173159069Y-45943693D01*
X173383097Y-45850898D01*
X173584717Y-45716180D01*
X173756180Y-45544717D01*
X173890898Y-45343097D01*
X173983693Y-45119069D01*
X174031000Y-44881243D01*
X174031000Y-44638757D01*
X173983693Y-44400931D01*
X173890898Y-44176903D01*
X173756180Y-43975283D01*
X173584717Y-43803820D01*
X173383097Y-43669102D01*
X173159069Y-43576307D01*
X172921243Y-43529000D01*
X172678757Y-43529000D01*
X172440931Y-43576307D01*
X172216903Y-43669102D01*
X172015283Y-43803820D01*
X171843820Y-43975283D01*
X171709102Y-44176903D01*
X171616307Y-44400931D01*
X171569000Y-44638757D01*
X142851000Y-44638757D01*
X142851000Y-44628757D01*
X142803693Y-44390931D01*
X142710898Y-44166903D01*
X142576180Y-43965283D01*
X142404717Y-43793820D01*
X142203097Y-43659102D01*
X141979069Y-43566307D01*
X141741243Y-43519000D01*
X141498757Y-43519000D01*
X141260931Y-43566307D01*
X141036903Y-43659102D01*
X140835283Y-43793820D01*
X140663820Y-43965283D01*
X140529102Y-44166903D01*
X140436307Y-44390931D01*
X140389000Y-44628757D01*
X140311000Y-44628757D01*
X140263693Y-44390931D01*
X140170898Y-44166903D01*
X140036180Y-43965283D01*
X139864717Y-43793820D01*
X139663097Y-43659102D01*
X139439069Y-43566307D01*
X139201243Y-43519000D01*
X138958757Y-43519000D01*
X138720931Y-43566307D01*
X138496903Y-43659102D01*
X138295283Y-43793820D01*
X138123820Y-43965283D01*
X137989102Y-44166903D01*
X137896307Y-44390931D01*
X137849000Y-44628757D01*
X137771000Y-44628757D01*
X137723693Y-44390931D01*
X137630898Y-44166903D01*
X137496180Y-43965283D01*
X137324717Y-43793820D01*
X137123097Y-43659102D01*
X136899069Y-43566307D01*
X136661243Y-43519000D01*
X136418757Y-43519000D01*
X136180931Y-43566307D01*
X135956903Y-43659102D01*
X135755283Y-43793820D01*
X135583820Y-43965283D01*
X135449102Y-44166903D01*
X135356307Y-44390931D01*
X135309000Y-44628757D01*
X135232843Y-44628757D01*
X135232843Y-43900000D01*
X135225487Y-43825311D01*
X135203701Y-43753492D01*
X135168322Y-43687304D01*
X135120711Y-43629289D01*
X135062696Y-43581678D01*
X134996508Y-43546299D01*
X134924689Y-43524513D01*
X134850000Y-43517157D01*
X133150000Y-43517157D01*
X133075311Y-43524513D01*
X133003492Y-43546299D01*
X132937304Y-43581678D01*
X132879289Y-43629289D01*
X132831678Y-43687304D01*
X132796299Y-43753492D01*
X132774513Y-43825311D01*
X132767157Y-43900000D01*
X127960897Y-43900000D01*
X127864717Y-43803820D01*
X127663097Y-43669102D01*
X127439069Y-43576307D01*
X127201243Y-43529000D01*
X126958757Y-43529000D01*
X126720931Y-43576307D01*
X126496903Y-43669102D01*
X126295283Y-43803820D01*
X126123820Y-43975283D01*
X125989102Y-44176903D01*
X125896307Y-44400931D01*
X125849000Y-44638757D01*
X125406000Y-44638757D01*
X125406000Y-41269853D01*
X125409700Y-41232119D01*
X125414892Y-41214922D01*
X125423328Y-41199057D01*
X125434680Y-41185139D01*
X125448528Y-41173683D01*
X125464330Y-41165139D01*
X125481489Y-41159827D01*
X125517901Y-41156000D01*
X126456647Y-41156000D01*
X126295283Y-41263820D01*
%TA.AperFunction,Conductor*%
D15*
G36*
X126295283Y-41263820D02*
G01*
X126123820Y-41435283D01*
X125989102Y-41636903D01*
X125896307Y-41860931D01*
X125849000Y-42098757D01*
X125849000Y-42341243D01*
X125896307Y-42579069D01*
X125989102Y-42803097D01*
X126123820Y-43004717D01*
X126295283Y-43176180D01*
X126496903Y-43310898D01*
X126720931Y-43403693D01*
X126958757Y-43451000D01*
X127201243Y-43451000D01*
X127439069Y-43403693D01*
X127663097Y-43310898D01*
X127864717Y-43176180D01*
X128036180Y-43004717D01*
X128170898Y-42803097D01*
X128263693Y-42579069D01*
X128311000Y-42341243D01*
X128311000Y-42098757D01*
X128263693Y-41860931D01*
X128170898Y-41636903D01*
X128036180Y-41435283D01*
X127864717Y-41263820D01*
X127703353Y-41156000D01*
X172176647Y-41156000D01*
X172015283Y-41263820D01*
X171843820Y-41435283D01*
X171709102Y-41636903D01*
X171616307Y-41860931D01*
X171569000Y-42098757D01*
X171569000Y-42341243D01*
X171616307Y-42579069D01*
X171709102Y-42803097D01*
X171843820Y-43004717D01*
X172015283Y-43176180D01*
X172216903Y-43310898D01*
X172440931Y-43403693D01*
X172678757Y-43451000D01*
X172921243Y-43451000D01*
X173159069Y-43403693D01*
X173383097Y-43310898D01*
X173584717Y-43176180D01*
X173756180Y-43004717D01*
X173890898Y-42803097D01*
X173983693Y-42579069D01*
X174031000Y-42341243D01*
X174031000Y-42098757D01*
X173983693Y-41860931D01*
X173890898Y-41636903D01*
X173756180Y-41435283D01*
X173584717Y-41263820D01*
X173423353Y-41156000D01*
X174480147Y-41156000D01*
X174517881Y-41159700D01*
X174535078Y-41164892D01*
X174550943Y-41173328D01*
X174564861Y-41184680D01*
X174576317Y-41198528D01*
X174584861Y-41214330D01*
X174590173Y-41231489D01*
X174594001Y-41267910D01*
X174594000Y-138730149D01*
X174590301Y-138767878D01*
X174585107Y-138785079D01*
X174576672Y-138800944D01*
X174565322Y-138814860D01*
X174551472Y-138826318D01*
X174535672Y-138834861D01*
X174518511Y-138840173D01*
X174482099Y-138844000D01*
X173543353Y-138844000D01*
X173704717Y-138736180D01*
X173876180Y-138564717D01*
X174010898Y-138363097D01*
X174103693Y-138139069D01*
X174151000Y-137901243D01*
X174151000Y-137658757D01*
X174103693Y-137420931D01*
X174010898Y-137196903D01*
X173876180Y-136995283D01*
X173704717Y-136823820D01*
X173503097Y-136689102D01*
X173279069Y-136596307D01*
X173041243Y-136549000D01*
X172798757Y-136549000D01*
X172560931Y-136596307D01*
X172336903Y-136689102D01*
X172135283Y-136823820D01*
X171963820Y-136995283D01*
X171829102Y-137196903D01*
X171736307Y-137420931D01*
X171728045Y-137462465D01*
X171727347Y-137461609D01*
X171665145Y-137386420D01*
X171638995Y-137360452D01*
X171613291Y-137334204D01*
X171608929Y-137330595D01*
X171608921Y-137330587D01*
X171608912Y-137330581D01*
X171533302Y-137268914D01*
X171502658Y-137248553D01*
X171472286Y-137227758D01*
X171467299Y-137225061D01*
X171381138Y-137179249D01*
X171347102Y-137165221D01*
X171313299Y-137150733D01*
X171307884Y-137149056D01*
X171214466Y-137120851D01*
X171178345Y-137113699D01*
X171142372Y-137106053D01*
X171136743Y-137105461D01*
X171136738Y-137105460D01*
X171136734Y-137105460D01*
X171039617Y-137095938D01*
X170982122Y-137090301D01*
X170964921Y-137085107D01*
X170949056Y-137076672D01*
X170935140Y-137065322D01*
X170923682Y-137051472D01*
X170915139Y-137035672D01*
X170909827Y-137018511D01*
X170906000Y-136982099D01*
X170906000Y-135118757D01*
X171689000Y-135118757D01*
X171689000Y-135361243D01*
X171736307Y-135599069D01*
X171829102Y-135823097D01*
X171963820Y-136024717D01*
X172135283Y-136196180D01*
X172336903Y-136330898D01*
X172560931Y-136423693D01*
X172798757Y-136471000D01*
X173041243Y-136471000D01*
X173279069Y-136423693D01*
X173503097Y-136330898D01*
X173704717Y-136196180D01*
X173876180Y-136024717D01*
X174010898Y-135823097D01*
X174103693Y-135599069D01*
X174151000Y-135361243D01*
X174151000Y-135118757D01*
X174103693Y-134880931D01*
X174010898Y-134656903D01*
X173876180Y-134455283D01*
X173704717Y-134283820D01*
X173503097Y-134149102D01*
X173279069Y-134056307D01*
X173041243Y-134009000D01*
X172798757Y-134009000D01*
X172560931Y-134056307D01*
X172336903Y-134149102D01*
X172135283Y-134283820D01*
X171963820Y-134455283D01*
X171829102Y-134656903D01*
X171736307Y-134880931D01*
X171689000Y-135118757D01*
X170906000Y-135118757D01*
X170906000Y-130038757D01*
X171689000Y-130038757D01*
X171689000Y-130281243D01*
X171736307Y-130519069D01*
X171829102Y-130743097D01*
X171963820Y-130944717D01*
X172135283Y-131116180D01*
X172336903Y-131250898D01*
X172560931Y-131343693D01*
X172798757Y-131391000D01*
X173041243Y-131391000D01*
X173279069Y-131343693D01*
X173503097Y-131250898D01*
X173704717Y-131116180D01*
X173876180Y-130944717D01*
X174010898Y-130743097D01*
X174103693Y-130519069D01*
X174151000Y-130281243D01*
X174151000Y-130038757D01*
X174103693Y-129800931D01*
X174010898Y-129576903D01*
X173876180Y-129375283D01*
X173704717Y-129203820D01*
X173503097Y-129069102D01*
X173279069Y-128976307D01*
X173041243Y-128929000D01*
X172798757Y-128929000D01*
X172560931Y-128976307D01*
X172336903Y-129069102D01*
X172135283Y-129203820D01*
X171963820Y-129375283D01*
X171829102Y-129576903D01*
X171736307Y-129800931D01*
X171689000Y-130038757D01*
X170906000Y-130038757D01*
X170906000Y-127498757D01*
X171689000Y-127498757D01*
X171689000Y-127741243D01*
X171736307Y-127979069D01*
X171829102Y-128203097D01*
X171963820Y-128404717D01*
X172135283Y-128576180D01*
X172336903Y-128710898D01*
X172560931Y-128803693D01*
X172798757Y-128851000D01*
X173041243Y-128851000D01*
X173279069Y-128803693D01*
X173503097Y-128710898D01*
X173704717Y-128576180D01*
X173876180Y-128404717D01*
X174010898Y-128203097D01*
X174103693Y-127979069D01*
X174151000Y-127741243D01*
X174151000Y-127498757D01*
X174103693Y-127260931D01*
X174010898Y-127036903D01*
X173876180Y-126835283D01*
X173704717Y-126663820D01*
X173503097Y-126529102D01*
X173279069Y-126436307D01*
X173041243Y-126389000D01*
X172798757Y-126389000D01*
X172560931Y-126436307D01*
X172336903Y-126529102D01*
X172135283Y-126663820D01*
X171963820Y-126835283D01*
X171829102Y-127036903D01*
X171736307Y-127260931D01*
X171689000Y-127498757D01*
X170906000Y-127498757D01*
X170906000Y-124958757D01*
X171689000Y-124958757D01*
X171689000Y-125201243D01*
X171736307Y-125439069D01*
X171829102Y-125663097D01*
X171963820Y-125864717D01*
X172135283Y-126036180D01*
X172336903Y-126170898D01*
X172560931Y-126263693D01*
X172798757Y-126311000D01*
X173041243Y-126311000D01*
X173279069Y-126263693D01*
X173503097Y-126170898D01*
X173704717Y-126036180D01*
X173876180Y-125864717D01*
X174010898Y-125663097D01*
X174103693Y-125439069D01*
X174151000Y-125201243D01*
X174151000Y-124958757D01*
X174103693Y-124720931D01*
X174010898Y-124496903D01*
X173876180Y-124295283D01*
X173704717Y-124123820D01*
X173503097Y-123989102D01*
X173279069Y-123896307D01*
X173041243Y-123849000D01*
X172798757Y-123849000D01*
X172560931Y-123896307D01*
X172336903Y-123989102D01*
X172135283Y-124123820D01*
X171963820Y-124295283D01*
X171829102Y-124496903D01*
X171736307Y-124720931D01*
X171689000Y-124958757D01*
X170906000Y-124958757D01*
X170906000Y-122418757D01*
X171689000Y-122418757D01*
X171689000Y-122661243D01*
X171736307Y-122899069D01*
X171829102Y-123123097D01*
X171963820Y-123324717D01*
X172135283Y-123496180D01*
X172336903Y-123630898D01*
X172560931Y-123723693D01*
X172798757Y-123771000D01*
X173041243Y-123771000D01*
X173279069Y-123723693D01*
X173503097Y-123630898D01*
X173704717Y-123496180D01*
X173876180Y-123324717D01*
X174010898Y-123123097D01*
X174103693Y-122899069D01*
X174151000Y-122661243D01*
X174151000Y-122418757D01*
X174103693Y-122180931D01*
X174010898Y-121956903D01*
X173876180Y-121755283D01*
X173704717Y-121583820D01*
X173503097Y-121449102D01*
X173279069Y-121356307D01*
X173041243Y-121309000D01*
X172798757Y-121309000D01*
X172560931Y-121356307D01*
X172336903Y-121449102D01*
X172135283Y-121583820D01*
X171963820Y-121755283D01*
X171829102Y-121956903D01*
X171736307Y-122180931D01*
X171689000Y-122418757D01*
X170906000Y-122418757D01*
X170906000Y-117338757D01*
X171689000Y-117338757D01*
X171689000Y-117581243D01*
X171736307Y-117819069D01*
X171829102Y-118043097D01*
X171963820Y-118244717D01*
X172135283Y-118416180D01*
X172336903Y-118550898D01*
X172560931Y-118643693D01*
X172798757Y-118691000D01*
X173041243Y-118691000D01*
X173279069Y-118643693D01*
X173503097Y-118550898D01*
X173704717Y-118416180D01*
X173876180Y-118244717D01*
X174010898Y-118043097D01*
X174103693Y-117819069D01*
X174151000Y-117581243D01*
X174151000Y-117338757D01*
X174103693Y-117100931D01*
X174010898Y-116876903D01*
X173876180Y-116675283D01*
X173704717Y-116503820D01*
X173503097Y-116369102D01*
X173279069Y-116276307D01*
X173041243Y-116229000D01*
X172798757Y-116229000D01*
X172560931Y-116276307D01*
X172336903Y-116369102D01*
X172135283Y-116503820D01*
X171963820Y-116675283D01*
X171829102Y-116876903D01*
X171736307Y-117100931D01*
X171689000Y-117338757D01*
X170906000Y-117338757D01*
X170906000Y-61980059D01*
X170904262Y-61962411D01*
X170904305Y-61956221D01*
X170903752Y-61950579D01*
X170883351Y-61756482D01*
X170875944Y-61720396D01*
X170869056Y-61684292D01*
X170867418Y-61678865D01*
X170809706Y-61492427D01*
X170795445Y-61458500D01*
X170781662Y-61424387D01*
X170779001Y-61419381D01*
X170686176Y-61247704D01*
X170665558Y-61217137D01*
X170645448Y-61186406D01*
X170641866Y-61182012D01*
X170517462Y-61031634D01*
X170491311Y-61005664D01*
X170465606Y-60979416D01*
X170461244Y-60975807D01*
X170461238Y-60975801D01*
X170461231Y-60975797D01*
X170309996Y-60852452D01*
X170279331Y-60832078D01*
X170248984Y-60811299D01*
X170244002Y-60808605D01*
X170243998Y-60808602D01*
X170243994Y-60808600D01*
X170071675Y-60716977D01*
X170037640Y-60702949D01*
X170003832Y-60688459D01*
X169998417Y-60686782D01*
X169811581Y-60630373D01*
X169775411Y-60623211D01*
X169739491Y-60615576D01*
X169733864Y-60614984D01*
X169733853Y-60614982D01*
X169733843Y-60614982D01*
X169539619Y-60595938D01*
X169539618Y-60595938D01*
X169519941Y-60594000D01*
X155381000Y-60594000D01*
X155381000Y-57338757D01*
X171569000Y-57338757D01*
X171569000Y-57581243D01*
X171616307Y-57819069D01*
X171709102Y-58043097D01*
X171843820Y-58244717D01*
X172015283Y-58416180D01*
X172216903Y-58550898D01*
X172440931Y-58643693D01*
X172678757Y-58691000D01*
X172921243Y-58691000D01*
X173159069Y-58643693D01*
X173383097Y-58550898D01*
X173584717Y-58416180D01*
X173756180Y-58244717D01*
X173890898Y-58043097D01*
X173983693Y-57819069D01*
X174031000Y-57581243D01*
X174031000Y-57338757D01*
X173983693Y-57100931D01*
X173890898Y-56876903D01*
X173756180Y-56675283D01*
X173584717Y-56503820D01*
X173383097Y-56369102D01*
X173159069Y-56276307D01*
X172921243Y-56229000D01*
X172678757Y-56229000D01*
X172440931Y-56276307D01*
X172216903Y-56369102D01*
X172015283Y-56503820D01*
X171843820Y-56675283D01*
X171709102Y-56876903D01*
X171616307Y-57100931D01*
X171569000Y-57338757D01*
X155381000Y-57338757D01*
X155381000Y-52258757D01*
X171569000Y-52258757D01*
X171569000Y-52501243D01*
X171616307Y-52739069D01*
X171709102Y-52963097D01*
X171843820Y-53164717D01*
X172015283Y-53336180D01*
X172216903Y-53470898D01*
X172440931Y-53563693D01*
X172678757Y-53611000D01*
X172921243Y-53611000D01*
X173159069Y-53563693D01*
X173383097Y-53470898D01*
X173584717Y-53336180D01*
X173756180Y-53164717D01*
X173890898Y-52963097D01*
X173983693Y-52739069D01*
X174031000Y-52501243D01*
X174031000Y-52258757D01*
X173983693Y-52020931D01*
X173890898Y-51796903D01*
X173756180Y-51595283D01*
X173584717Y-51423820D01*
X173383097Y-51289102D01*
X173159069Y-51196307D01*
X172921243Y-51149000D01*
X172678757Y-51149000D01*
X172440931Y-51196307D01*
X172216903Y-51289102D01*
X172015283Y-51423820D01*
X171843820Y-51595283D01*
X171709102Y-51796903D01*
X171616307Y-52020931D01*
X171569000Y-52258757D01*
X155381000Y-52258757D01*
X155381000Y-47829511D01*
X159309000Y-47829511D01*
X159309000Y-48170489D01*
X159375521Y-48504914D01*
X159506007Y-48819936D01*
X159695444Y-49103448D01*
X159936552Y-49344556D01*
X160220064Y-49533993D01*
X160535086Y-49664479D01*
X160869511Y-49731000D01*
X161210489Y-49731000D01*
X161544914Y-49664479D01*
X161859936Y-49533993D01*
X162143448Y-49344556D01*
X162384556Y-49103448D01*
X162573993Y-48819936D01*
X162704479Y-48504914D01*
X162771000Y-48170489D01*
X162771000Y-47829511D01*
X162704479Y-47495086D01*
X162573993Y-47180064D01*
X162386861Y-46900001D01*
X163267157Y-46900001D01*
X163267157Y-49099999D01*
X163279317Y-49223461D01*
X163315329Y-49342178D01*
X163373810Y-49451588D01*
X163452513Y-49547487D01*
X163548412Y-49626190D01*
X163657822Y-49684671D01*
X163776539Y-49720683D01*
X163900001Y-49732843D01*
X166099999Y-49732843D01*
X166223461Y-49720683D01*
X166229810Y-49718757D01*
X171569000Y-49718757D01*
X171569000Y-49961243D01*
X171616307Y-50199069D01*
X171709102Y-50423097D01*
X171843820Y-50624717D01*
X172015283Y-50796180D01*
X172216903Y-50930898D01*
X172440931Y-51023693D01*
X172678757Y-51071000D01*
X172921243Y-51071000D01*
X173159069Y-51023693D01*
X173383097Y-50930898D01*
X173584717Y-50796180D01*
X173756180Y-50624717D01*
X173890898Y-50423097D01*
X173983693Y-50199069D01*
X174031000Y-49961243D01*
X174031000Y-49718757D01*
X173983693Y-49480931D01*
X173890898Y-49256903D01*
X173756180Y-49055283D01*
X173584717Y-48883820D01*
X173383097Y-48749102D01*
X173159069Y-48656307D01*
X172921243Y-48609000D01*
X172678757Y-48609000D01*
X172440931Y-48656307D01*
X172216903Y-48749102D01*
X172015283Y-48883820D01*
X171843820Y-49055283D01*
X171709102Y-49256903D01*
X171616307Y-49480931D01*
X171569000Y-49718757D01*
X166229810Y-49718757D01*
X166342178Y-49684671D01*
X166451588Y-49626190D01*
X166547487Y-49547487D01*
X166626190Y-49451588D01*
X166684671Y-49342178D01*
X166720683Y-49223461D01*
X166732843Y-49099999D01*
X166732843Y-46900001D01*
X166720683Y-46776539D01*
X166684671Y-46657822D01*
X166626190Y-46548412D01*
X166547487Y-46452513D01*
X166451588Y-46373810D01*
X166342178Y-46315329D01*
X166223461Y-46279317D01*
X166099999Y-46267157D01*
X163900001Y-46267157D01*
X163776539Y-46279317D01*
X163657822Y-46315329D01*
X163548412Y-46373810D01*
X163452513Y-46452513D01*
X163373810Y-46548412D01*
X163315329Y-46657822D01*
X163279317Y-46776539D01*
X163267157Y-46900001D01*
X162386861Y-46900001D01*
X162384556Y-46896552D01*
X162143448Y-46655444D01*
X161859936Y-46466007D01*
X161544914Y-46335521D01*
X161210489Y-46269000D01*
X160869511Y-46269000D01*
X160535086Y-46335521D01*
X160220064Y-46466007D01*
X159936552Y-46655444D01*
X159695444Y-46896552D01*
X159506007Y-47180064D01*
X159375521Y-47495086D01*
X159309000Y-47829511D01*
X155381000Y-47829511D01*
X155381000Y-46758000D01*
X155377740Y-46708269D01*
X155360430Y-46576789D01*
X155334689Y-46480719D01*
X155283940Y-46358199D01*
X155234208Y-46272061D01*
X155153477Y-46166851D01*
X155083149Y-46096523D01*
X154977939Y-46015792D01*
X154891801Y-45966060D01*
X154769281Y-45915311D01*
X154673211Y-45889570D01*
X154541731Y-45872260D01*
X154492000Y-45869000D01*
X151758000Y-45869000D01*
X151708269Y-45872260D01*
X151576789Y-45889570D01*
X151480719Y-45915311D01*
X151358199Y-45966060D01*
X151272061Y-46015792D01*
X151166851Y-46096523D01*
X151096523Y-46166851D01*
X151015792Y-46272061D01*
X150966060Y-46358199D01*
X150915311Y-46480719D01*
X150889570Y-46576789D01*
X150872260Y-46708269D01*
X150869000Y-46758000D01*
X150869000Y-58467031D01*
X150861498Y-58524017D01*
X150849137Y-58553857D01*
X150829478Y-58579478D01*
X150803857Y-58599137D01*
X150774017Y-58611498D01*
X150717031Y-58619000D01*
X128758000Y-58619000D01*
X128708269Y-58622260D01*
X128576789Y-58639570D01*
X128480719Y-58665311D01*
X128358199Y-58716060D01*
X128272061Y-58765792D01*
X128166851Y-58846523D01*
X128096523Y-58916851D01*
X128015792Y-59022061D01*
X127966060Y-59108199D01*
X127915311Y-59230719D01*
X127889570Y-59326789D01*
X127872260Y-59458269D01*
X127869000Y-59508000D01*
X127869000Y-60717031D01*
X127861498Y-60774017D01*
X127849137Y-60803857D01*
X127829478Y-60829478D01*
X127803857Y-60849137D01*
X127774017Y-60861498D01*
X127717031Y-60869000D01*
X126508000Y-60869000D01*
X126458269Y-60872260D01*
X126326789Y-60889570D01*
X126230719Y-60915311D01*
X126108199Y-60966060D01*
X126022061Y-61015792D01*
X125916851Y-61096523D01*
X125846523Y-61166851D01*
X125765792Y-61272061D01*
X125716060Y-61358199D01*
X125665311Y-61480719D01*
X125639570Y-61576789D01*
X125622260Y-61708269D01*
X125619000Y-61758000D01*
X125619000Y-63492000D01*
X125622260Y-63541731D01*
X125639570Y-63673211D01*
X125665311Y-63769281D01*
X125716060Y-63891801D01*
X125765792Y-63977939D01*
X125846523Y-64083149D01*
X125916851Y-64153477D01*
X126022061Y-64234208D01*
X126108199Y-64283940D01*
X126230719Y-64334689D01*
X126326789Y-64360430D01*
X126458269Y-64377740D01*
X126508000Y-64381000D01*
X129094000Y-64381000D01*
X129094001Y-136980139D01*
X129090301Y-137017878D01*
X129085107Y-137035079D01*
X129076672Y-137050944D01*
X129065322Y-137064860D01*
X129051472Y-137076318D01*
X129035672Y-137084861D01*
X129018511Y-137090173D01*
X128965689Y-137095725D01*
X128959714Y-137095683D01*
X128954072Y-137096236D01*
X128857023Y-137106436D01*
X128820957Y-137113839D01*
X128784831Y-137120731D01*
X128779404Y-137122369D01*
X128686185Y-137151225D01*
X128652238Y-137165495D01*
X128618142Y-137179271D01*
X128613143Y-137181928D01*
X128613139Y-137181930D01*
X128613136Y-137181932D01*
X128527299Y-137228345D01*
X128496793Y-137248922D01*
X128466003Y-137269070D01*
X128461609Y-137272653D01*
X128386420Y-137334855D01*
X128360452Y-137361005D01*
X128359327Y-137362106D01*
X128290898Y-137196903D01*
X128156180Y-136995283D01*
X127984717Y-136823820D01*
X127783097Y-136689102D01*
X127559069Y-136596307D01*
X127321243Y-136549000D01*
X127078757Y-136549000D01*
X126840931Y-136596307D01*
X126616903Y-136689102D01*
X126415283Y-136823820D01*
X126243820Y-136995283D01*
X126109102Y-137196903D01*
X126016307Y-137420931D01*
X125969000Y-137658757D01*
X125969000Y-137901243D01*
X126016307Y-138139069D01*
X126109102Y-138363097D01*
X126243820Y-138564717D01*
X126415283Y-138736180D01*
X126576647Y-138844000D01*
X125519851Y-138844000D01*
X125482122Y-138840301D01*
X125464921Y-138835107D01*
X125449056Y-138826672D01*
X125435140Y-138815322D01*
X125423682Y-138801472D01*
X125415139Y-138785672D01*
X125409827Y-138768511D01*
X125406000Y-138732099D01*
X125406000Y-135118757D01*
X125969000Y-135118757D01*
X125969000Y-135361243D01*
X126016307Y-135599069D01*
X126109102Y-135823097D01*
X126243820Y-136024717D01*
X126415283Y-136196180D01*
X126616903Y-136330898D01*
X126840931Y-136423693D01*
X127078757Y-136471000D01*
X127321243Y-136471000D01*
X127559069Y-136423693D01*
X127783097Y-136330898D01*
X127984717Y-136196180D01*
X128156180Y-136024717D01*
X128290898Y-135823097D01*
X128383693Y-135599069D01*
X128431000Y-135361243D01*
X128431000Y-135118757D01*
X128383693Y-134880931D01*
X128290898Y-134656903D01*
X128156180Y-134455283D01*
X127984717Y-134283820D01*
X127783097Y-134149102D01*
X127559069Y-134056307D01*
X127321243Y-134009000D01*
X127078757Y-134009000D01*
X126840931Y-134056307D01*
X126616903Y-134149102D01*
X126415283Y-134283820D01*
X126243820Y-134455283D01*
X126109102Y-134656903D01*
X126016307Y-134880931D01*
X125969000Y-135118757D01*
X125406000Y-135118757D01*
X125406000Y-130038757D01*
X125969000Y-130038757D01*
X125969000Y-130281243D01*
X126016307Y-130519069D01*
X126109102Y-130743097D01*
X126243820Y-130944717D01*
X126415283Y-131116180D01*
X126616903Y-131250898D01*
X126840931Y-131343693D01*
X127078757Y-131391000D01*
X127321243Y-131391000D01*
X127559069Y-131343693D01*
X127783097Y-131250898D01*
X127984717Y-131116180D01*
X128156180Y-130944717D01*
X128290898Y-130743097D01*
X128383693Y-130519069D01*
X128431000Y-130281243D01*
X128431000Y-130038757D01*
X128383693Y-129800931D01*
X128290898Y-129576903D01*
X128156180Y-129375283D01*
X127984717Y-129203820D01*
X127783097Y-129069102D01*
X127559069Y-128976307D01*
X127321243Y-128929000D01*
X127078757Y-128929000D01*
X126840931Y-128976307D01*
X126616903Y-129069102D01*
X126415283Y-129203820D01*
X126243820Y-129375283D01*
X126109102Y-129576903D01*
X126016307Y-129800931D01*
X125969000Y-130038757D01*
X125406000Y-130038757D01*
X125406000Y-127498757D01*
X125969000Y-127498757D01*
X125969000Y-127741243D01*
X126016307Y-127979069D01*
X126109102Y-128203097D01*
X126243820Y-128404717D01*
X126415283Y-128576180D01*
X126616903Y-128710898D01*
X126840931Y-128803693D01*
X127078757Y-128851000D01*
X127321243Y-128851000D01*
X127559069Y-128803693D01*
X127783097Y-128710898D01*
X127984717Y-128576180D01*
X128156180Y-128404717D01*
X128290898Y-128203097D01*
X128383693Y-127979069D01*
X128431000Y-127741243D01*
X128431000Y-127498757D01*
X128383693Y-127260931D01*
X128290898Y-127036903D01*
X128156180Y-126835283D01*
X127984717Y-126663820D01*
X127783097Y-126529102D01*
X127559069Y-126436307D01*
X127321243Y-126389000D01*
X127078757Y-126389000D01*
X126840931Y-126436307D01*
X126616903Y-126529102D01*
X126415283Y-126663820D01*
X126243820Y-126835283D01*
X126109102Y-127036903D01*
X126016307Y-127260931D01*
X125969000Y-127498757D01*
X125406000Y-127498757D01*
X125406000Y-122418757D01*
X125969000Y-122418757D01*
X125969000Y-122661243D01*
X126016307Y-122899069D01*
X126109102Y-123123097D01*
X126243820Y-123324717D01*
X126415283Y-123496180D01*
X126616903Y-123630898D01*
X126840931Y-123723693D01*
X127078757Y-123771000D01*
X127321243Y-123771000D01*
X127559069Y-123723693D01*
X127783097Y-123630898D01*
X127984717Y-123496180D01*
X128156180Y-123324717D01*
X128290898Y-123123097D01*
X128383693Y-122899069D01*
X128431000Y-122661243D01*
X128431000Y-122418757D01*
X128383693Y-122180931D01*
X128290898Y-121956903D01*
X128156180Y-121755283D01*
X127984717Y-121583820D01*
X127783097Y-121449102D01*
X127559069Y-121356307D01*
X127321243Y-121309000D01*
X127078757Y-121309000D01*
X126840931Y-121356307D01*
X126616903Y-121449102D01*
X126415283Y-121583820D01*
X126243820Y-121755283D01*
X126109102Y-121956903D01*
X126016307Y-122180931D01*
X125969000Y-122418757D01*
X125406000Y-122418757D01*
X125406000Y-57338757D01*
X125849000Y-57338757D01*
X125849000Y-57581243D01*
X125896307Y-57819069D01*
X125989102Y-58043097D01*
X126123820Y-58244717D01*
X126295283Y-58416180D01*
X126496903Y-58550898D01*
X126720931Y-58643693D01*
X126958757Y-58691000D01*
X127201243Y-58691000D01*
X127439069Y-58643693D01*
X127663097Y-58550898D01*
X127864717Y-58416180D01*
X128036180Y-58244717D01*
X128170898Y-58043097D01*
X128263693Y-57819069D01*
X128311000Y-57581243D01*
X128311000Y-57387927D01*
X133319000Y-57387927D01*
X133319000Y-57522073D01*
X133345171Y-57653640D01*
X133396506Y-57777574D01*
X133471033Y-57889112D01*
X133565888Y-57983967D01*
X133677426Y-58058494D01*
X133801360Y-58109829D01*
X133932927Y-58136000D01*
X134067073Y-58136000D01*
X134198640Y-58109829D01*
X134322574Y-58058494D01*
X134434112Y-57983967D01*
X134528967Y-57889112D01*
X134603494Y-57777574D01*
X134654829Y-57653640D01*
X134681000Y-57522073D01*
X134681000Y-57387927D01*
X134654829Y-57256360D01*
X134603494Y-57132426D01*
X134528967Y-57020888D01*
X134434112Y-56926033D01*
X134322574Y-56851506D01*
X134198640Y-56800171D01*
X134067073Y-56774000D01*
X133932927Y-56774000D01*
X133801360Y-56800171D01*
X133677426Y-56851506D01*
X133565888Y-56926033D01*
X133471033Y-57020888D01*
X133396506Y-57132426D01*
X133345171Y-57256360D01*
X133319000Y-57387927D01*
X128311000Y-57387927D01*
X128311000Y-57338757D01*
X128263693Y-57100931D01*
X128170898Y-56876903D01*
X128036180Y-56675283D01*
X127864717Y-56503820D01*
X127663097Y-56369102D01*
X127439069Y-56276307D01*
X127201243Y-56229000D01*
X126958757Y-56229000D01*
X126720931Y-56276307D01*
X126496903Y-56369102D01*
X126295283Y-56503820D01*
X126123820Y-56675283D01*
X125989102Y-56876903D01*
X125896307Y-57100931D01*
X125849000Y-57338757D01*
X125406000Y-57338757D01*
X125406000Y-54798757D01*
X125849000Y-54798757D01*
X125849000Y-55041243D01*
X125896307Y-55279069D01*
X125989102Y-55503097D01*
X126123820Y-55704717D01*
X126295283Y-55876180D01*
X126496903Y-56010898D01*
X126720931Y-56103693D01*
X126958757Y-56151000D01*
X127201243Y-56151000D01*
X127439069Y-56103693D01*
X127663097Y-56010898D01*
X127864717Y-55876180D01*
X128036180Y-55704717D01*
X128170898Y-55503097D01*
X128263693Y-55279069D01*
X128311000Y-55041243D01*
X128311000Y-54847927D01*
X135859000Y-54847927D01*
X135859000Y-54982073D01*
X135885171Y-55113640D01*
X135936506Y-55237574D01*
X136011033Y-55349112D01*
X136105888Y-55443967D01*
X136217426Y-55518494D01*
X136341360Y-55569829D01*
X136472927Y-55596000D01*
X136607073Y-55596000D01*
X136738640Y-55569829D01*
X136862574Y-55518494D01*
X136974112Y-55443967D01*
X137068967Y-55349112D01*
X137143494Y-55237574D01*
X137194829Y-55113640D01*
X137221000Y-54982073D01*
X137221000Y-54847927D01*
X137194829Y-54716360D01*
X137143494Y-54592426D01*
X137068967Y-54480888D01*
X136974112Y-54386033D01*
X136862574Y-54311506D01*
X136738640Y-54260171D01*
X136607073Y-54234000D01*
X136472927Y-54234000D01*
X136341360Y-54260171D01*
X136217426Y-54311506D01*
X136105888Y-54386033D01*
X136011033Y-54480888D01*
X135936506Y-54592426D01*
X135885171Y-54716360D01*
X135859000Y-54847927D01*
X128311000Y-54847927D01*
X128311000Y-54798757D01*
X128263693Y-54560931D01*
X128170898Y-54336903D01*
X128036180Y-54135283D01*
X127864717Y-53963820D01*
X127663097Y-53829102D01*
X127439069Y-53736307D01*
X127201243Y-53689000D01*
X126958757Y-53689000D01*
X126720931Y-53736307D01*
X126496903Y-53829102D01*
X126295283Y-53963820D01*
X126123820Y-54135283D01*
X125989102Y-54336903D01*
X125896307Y-54560931D01*
X125849000Y-54798757D01*
X125406000Y-54798757D01*
X125406000Y-52258757D01*
X125849000Y-52258757D01*
X125849000Y-52501243D01*
X125896307Y-52739069D01*
X125989102Y-52963097D01*
X126123820Y-53164717D01*
X126295283Y-53336180D01*
X126496903Y-53470898D01*
X126720931Y-53563693D01*
X126958757Y-53611000D01*
X127201243Y-53611000D01*
X127439069Y-53563693D01*
X127663097Y-53470898D01*
X127864717Y-53336180D01*
X128036180Y-53164717D01*
X128170898Y-52963097D01*
X128263693Y-52739069D01*
X128311000Y-52501243D01*
X128311000Y-52312927D01*
X138399000Y-52312927D01*
X138399000Y-52447073D01*
X138425171Y-52578640D01*
X138476506Y-52702574D01*
X138551033Y-52814112D01*
X138645888Y-52908967D01*
X138757426Y-52983494D01*
X138881360Y-53034829D01*
X139012927Y-53061000D01*
X139147073Y-53061000D01*
X139278640Y-53034829D01*
X139402574Y-52983494D01*
X139514112Y-52908967D01*
X139608967Y-52814112D01*
X139683494Y-52702574D01*
X139734829Y-52578640D01*
X139761000Y-52447073D01*
X139761000Y-52312927D01*
X139734829Y-52181360D01*
X139683494Y-52057426D01*
X139608967Y-51945888D01*
X139514112Y-51851033D01*
X139402574Y-51776506D01*
X139278640Y-51725171D01*
X139147073Y-51699000D01*
X139012927Y-51699000D01*
X138881360Y-51725171D01*
X138757426Y-51776506D01*
X138645888Y-51851033D01*
X138551033Y-51945888D01*
X138476506Y-52057426D01*
X138425171Y-52181360D01*
X138399000Y-52312927D01*
X128311000Y-52312927D01*
X128311000Y-52258757D01*
X128263693Y-52020931D01*
X128170898Y-51796903D01*
X128036180Y-51595283D01*
X127864717Y-51423820D01*
X127663097Y-51289102D01*
X127439069Y-51196307D01*
X127201243Y-51149000D01*
X126958757Y-51149000D01*
X126720931Y-51196307D01*
X126496903Y-51289102D01*
X126295283Y-51423820D01*
X126123820Y-51595283D01*
X125989102Y-51796903D01*
X125896307Y-52020931D01*
X125849000Y-52258757D01*
X125406000Y-52258757D01*
X125406000Y-49718757D01*
X125849000Y-49718757D01*
X125849000Y-49961243D01*
X125896307Y-50199069D01*
X125989102Y-50423097D01*
X126123820Y-50624717D01*
X126295283Y-50796180D01*
X126496903Y-50930898D01*
X126720931Y-51023693D01*
X126958757Y-51071000D01*
X127201243Y-51071000D01*
X127439069Y-51023693D01*
X127663097Y-50930898D01*
X127864717Y-50796180D01*
X128036180Y-50624717D01*
X128170898Y-50423097D01*
X128263693Y-50199069D01*
X128311000Y-49961243D01*
X128311000Y-49767927D01*
X140939000Y-49767927D01*
X140939000Y-49902073D01*
X140965171Y-50033640D01*
X141016506Y-50157574D01*
X141091033Y-50269112D01*
X141185888Y-50363967D01*
X141297426Y-50438494D01*
X141421360Y-50489829D01*
X141552927Y-50516000D01*
X141687073Y-50516000D01*
X141818640Y-50489829D01*
X141942574Y-50438494D01*
X142054112Y-50363967D01*
X142148967Y-50269112D01*
X142223494Y-50157574D01*
X142274829Y-50033640D01*
X142301000Y-49902073D01*
X142301000Y-49767927D01*
X142274829Y-49636360D01*
X142223494Y-49512426D01*
X142148967Y-49400888D01*
X142054112Y-49306033D01*
X141942574Y-49231506D01*
X141818640Y-49180171D01*
X141687073Y-49154000D01*
X141552927Y-49154000D01*
X141421360Y-49180171D01*
X141297426Y-49231506D01*
X141185888Y-49306033D01*
X141091033Y-49400888D01*
X141016506Y-49512426D01*
X140965171Y-49636360D01*
X140939000Y-49767927D01*
X128311000Y-49767927D01*
X128311000Y-49718757D01*
X128263693Y-49480931D01*
X128170898Y-49256903D01*
X128036180Y-49055283D01*
X127864717Y-48883820D01*
X127663097Y-48749102D01*
X127439069Y-48656307D01*
X127201243Y-48609000D01*
X126958757Y-48609000D01*
X126720931Y-48656307D01*
X126496903Y-48749102D01*
X126295283Y-48883820D01*
X126123820Y-49055283D01*
X125989102Y-49256903D01*
X125896307Y-49480931D01*
X125849000Y-49718757D01*
X125406000Y-49718757D01*
X125406000Y-44638757D01*
X125849000Y-44638757D01*
X125849000Y-44881243D01*
X125896307Y-45119069D01*
X125989102Y-45343097D01*
X126123820Y-45544717D01*
X126295283Y-45716180D01*
X126496903Y-45850898D01*
X126720931Y-45943693D01*
X126958757Y-45991000D01*
X127201243Y-45991000D01*
X127439069Y-45943693D01*
X127663097Y-45850898D01*
X127864717Y-45716180D01*
X128036180Y-45544717D01*
X128170898Y-45343097D01*
X128263693Y-45119069D01*
X128311000Y-44881243D01*
X128311000Y-44638757D01*
X128263693Y-44400931D01*
X128170898Y-44176903D01*
X128036180Y-43975283D01*
X127960897Y-43900000D01*
X132767157Y-43900000D01*
X132767157Y-45600000D01*
X132774513Y-45674689D01*
X132796299Y-45746508D01*
X132831678Y-45812696D01*
X132879289Y-45870711D01*
X132937304Y-45918322D01*
X133003492Y-45953701D01*
X133075311Y-45975487D01*
X133150000Y-45982843D01*
X134850000Y-45982843D01*
X134924689Y-45975487D01*
X134996508Y-45953701D01*
X135062696Y-45918322D01*
X135120711Y-45870711D01*
X135168322Y-45812696D01*
X135203701Y-45746508D01*
X135225487Y-45674689D01*
X135232843Y-45600000D01*
X135232843Y-44628757D01*
X135309000Y-44628757D01*
X135309000Y-44871243D01*
X135356307Y-45109069D01*
X135449102Y-45333097D01*
X135583820Y-45534717D01*
X135755283Y-45706180D01*
X135956903Y-45840898D01*
X136180931Y-45933693D01*
X136418757Y-45981000D01*
X136661243Y-45981000D01*
X136899069Y-45933693D01*
X137123097Y-45840898D01*
X137324717Y-45706180D01*
X137496180Y-45534717D01*
X137630898Y-45333097D01*
X137723693Y-45109069D01*
X137771000Y-44871243D01*
X137771000Y-44628757D01*
X137849000Y-44628757D01*
X137849000Y-44871243D01*
X137896307Y-45109069D01*
X137989102Y-45333097D01*
X138123820Y-45534717D01*
X138295283Y-45706180D01*
X138496903Y-45840898D01*
X138720931Y-45933693D01*
X138958757Y-45981000D01*
X139201243Y-45981000D01*
X139439069Y-45933693D01*
X139663097Y-45840898D01*
X139864717Y-45706180D01*
X140036180Y-45534717D01*
X140170898Y-45333097D01*
X140263693Y-45109069D01*
X140311000Y-44871243D01*
X140311000Y-44628757D01*
X140389000Y-44628757D01*
X140389000Y-44871243D01*
X140436307Y-45109069D01*
X140529102Y-45333097D01*
X140663820Y-45534717D01*
X140835283Y-45706180D01*
X141036903Y-45840898D01*
X141260931Y-45933693D01*
X141498757Y-45981000D01*
X141741243Y-45981000D01*
X141979069Y-45933693D01*
X142203097Y-45840898D01*
X142404717Y-45706180D01*
X142576180Y-45534717D01*
X142710898Y-45333097D01*
X142803693Y-45109069D01*
X142851000Y-44871243D01*
X142851000Y-44638757D01*
X171569000Y-44638757D01*
X171569000Y-44881243D01*
X171616307Y-45119069D01*
X171709102Y-45343097D01*
X171843820Y-45544717D01*
X172015283Y-45716180D01*
X172216903Y-45850898D01*
X172440931Y-45943693D01*
X172678757Y-45991000D01*
X172921243Y-45991000D01*
X173159069Y-45943693D01*
X173383097Y-45850898D01*
X173584717Y-45716180D01*
X173756180Y-45544717D01*
X173890898Y-45343097D01*
X173983693Y-45119069D01*
X174031000Y-44881243D01*
X174031000Y-44638757D01*
X173983693Y-44400931D01*
X173890898Y-44176903D01*
X173756180Y-43975283D01*
X173584717Y-43803820D01*
X173383097Y-43669102D01*
X173159069Y-43576307D01*
X172921243Y-43529000D01*
X172678757Y-43529000D01*
X172440931Y-43576307D01*
X172216903Y-43669102D01*
X172015283Y-43803820D01*
X171843820Y-43975283D01*
X171709102Y-44176903D01*
X171616307Y-44400931D01*
X171569000Y-44638757D01*
X142851000Y-44638757D01*
X142851000Y-44628757D01*
X142803693Y-44390931D01*
X142710898Y-44166903D01*
X142576180Y-43965283D01*
X142404717Y-43793820D01*
X142203097Y-43659102D01*
X141979069Y-43566307D01*
X141741243Y-43519000D01*
X141498757Y-43519000D01*
X141260931Y-43566307D01*
X141036903Y-43659102D01*
X140835283Y-43793820D01*
X140663820Y-43965283D01*
X140529102Y-44166903D01*
X140436307Y-44390931D01*
X140389000Y-44628757D01*
X140311000Y-44628757D01*
X140263693Y-44390931D01*
X140170898Y-44166903D01*
X140036180Y-43965283D01*
X139864717Y-43793820D01*
X139663097Y-43659102D01*
X139439069Y-43566307D01*
X139201243Y-43519000D01*
X138958757Y-43519000D01*
X138720931Y-43566307D01*
X138496903Y-43659102D01*
X138295283Y-43793820D01*
X138123820Y-43965283D01*
X137989102Y-44166903D01*
X137896307Y-44390931D01*
X137849000Y-44628757D01*
X137771000Y-44628757D01*
X137723693Y-44390931D01*
X137630898Y-44166903D01*
X137496180Y-43965283D01*
X137324717Y-43793820D01*
X137123097Y-43659102D01*
X136899069Y-43566307D01*
X136661243Y-43519000D01*
X136418757Y-43519000D01*
X136180931Y-43566307D01*
X135956903Y-43659102D01*
X135755283Y-43793820D01*
X135583820Y-43965283D01*
X135449102Y-44166903D01*
X135356307Y-44390931D01*
X135309000Y-44628757D01*
X135232843Y-44628757D01*
X135232843Y-43900000D01*
X135225487Y-43825311D01*
X135203701Y-43753492D01*
X135168322Y-43687304D01*
X135120711Y-43629289D01*
X135062696Y-43581678D01*
X134996508Y-43546299D01*
X134924689Y-43524513D01*
X134850000Y-43517157D01*
X133150000Y-43517157D01*
X133075311Y-43524513D01*
X133003492Y-43546299D01*
X132937304Y-43581678D01*
X132879289Y-43629289D01*
X132831678Y-43687304D01*
X132796299Y-43753492D01*
X132774513Y-43825311D01*
X132767157Y-43900000D01*
X127960897Y-43900000D01*
X127864717Y-43803820D01*
X127663097Y-43669102D01*
X127439069Y-43576307D01*
X127201243Y-43529000D01*
X126958757Y-43529000D01*
X126720931Y-43576307D01*
X126496903Y-43669102D01*
X126295283Y-43803820D01*
X126123820Y-43975283D01*
X125989102Y-44176903D01*
X125896307Y-44400931D01*
X125849000Y-44638757D01*
X125406000Y-44638757D01*
X125406000Y-41269853D01*
X125409700Y-41232119D01*
X125414892Y-41214922D01*
X125423328Y-41199057D01*
X125434680Y-41185139D01*
X125448528Y-41173683D01*
X125464330Y-41165139D01*
X125481489Y-41159827D01*
X125517901Y-41156000D01*
X126456647Y-41156000D01*
X126295283Y-41263820D01*
G37*
%TD.AperFunction*%
%TD*%
D16*
%TO.N,+5VD*%
X154598614Y-46360108D02*
X154697963Y-46401260D01*
X154783277Y-46466723D01*
X154848740Y-46552037D01*
X154889892Y-46651386D01*
X154904750Y-46764243D01*
X154904750Y-60689250D01*
X130484740Y-60689250D01*
X130471069Y-60690596D01*
X130464854Y-60690553D01*
X130460536Y-60690976D01*
X130266439Y-60711377D01*
X130238813Y-60717048D01*
X130211185Y-60722318D01*
X130207033Y-60723571D01*
X130207027Y-60723573D01*
X130020593Y-60781284D01*
X129994624Y-60792200D01*
X129968515Y-60802749D01*
X129964684Y-60804786D01*
X129793007Y-60897611D01*
X129769627Y-60913381D01*
X129746089Y-60928783D01*
X129742736Y-60931518D01*
X129742728Y-60931524D01*
X129742721Y-60931531D01*
X129592349Y-61055929D01*
X129572497Y-61075920D01*
X129552381Y-61095619D01*
X129549615Y-61098963D01*
X129426265Y-61250205D01*
X129410671Y-61273676D01*
X129394767Y-61296903D01*
X129392706Y-61300715D01*
X129392703Y-61300719D01*
X129392703Y-61300720D01*
X129301078Y-61473042D01*
X129290345Y-61499082D01*
X129279250Y-61524968D01*
X129277967Y-61529113D01*
X129221558Y-61715950D01*
X129216093Y-61743549D01*
X129210231Y-61771127D01*
X129209778Y-61775442D01*
X129190733Y-61969676D01*
X129190733Y-61969684D01*
X129189250Y-61984741D01*
X129189250Y-63904750D01*
X126514243Y-63904750D01*
X126401386Y-63889892D01*
X126302037Y-63848740D01*
X126216723Y-63783277D01*
X126151260Y-63697963D01*
X126110108Y-63598614D01*
X126095250Y-63485757D01*
X126095250Y-61764243D01*
X126110108Y-61651386D01*
X126151260Y-61552037D01*
X126216723Y-61466723D01*
X126302037Y-61401260D01*
X126401386Y-61360108D01*
X126514243Y-61345250D01*
X127742000Y-61345250D01*
X127754433Y-61344435D01*
X127885913Y-61327125D01*
X127909930Y-61320690D01*
X128032450Y-61269941D01*
X128053985Y-61257508D01*
X128159195Y-61176777D01*
X128176777Y-61159195D01*
X128257508Y-61053985D01*
X128269941Y-61032450D01*
X128320690Y-60909930D01*
X128327125Y-60885913D01*
X128344435Y-60754433D01*
X128345250Y-60742000D01*
X128345250Y-59514243D01*
X128360108Y-59401386D01*
X128401260Y-59302037D01*
X128466723Y-59216723D01*
X128552037Y-59151260D01*
X128651386Y-59110108D01*
X128764243Y-59095250D01*
X150742000Y-59095250D01*
X150754433Y-59094435D01*
X150885913Y-59077125D01*
X150909930Y-59070690D01*
X151032450Y-59019941D01*
X151053985Y-59007508D01*
X151159195Y-58926777D01*
X151176777Y-58909195D01*
X151257508Y-58803985D01*
X151269941Y-58782450D01*
X151320690Y-58659930D01*
X151327125Y-58635913D01*
X151344435Y-58504433D01*
X151345250Y-58492000D01*
X151345250Y-46764243D01*
X151360108Y-46651386D01*
X151401260Y-46552037D01*
X151466723Y-46466723D01*
X151552037Y-46401260D01*
X151651386Y-46360108D01*
X151764243Y-46345250D01*
X154485757Y-46345250D01*
X154598614Y-46360108D01*
%TA.AperFunction,Conductor*%
D15*
G36*
X154598614Y-46360108D02*
G01*
X154697963Y-46401260D01*
X154783277Y-46466723D01*
X154848740Y-46552037D01*
X154889892Y-46651386D01*
X154904750Y-46764243D01*
X154904750Y-60689250D01*
X130484740Y-60689250D01*
X130471069Y-60690596D01*
X130464854Y-60690553D01*
X130460536Y-60690976D01*
X130266439Y-60711377D01*
X130238813Y-60717048D01*
X130211185Y-60722318D01*
X130207033Y-60723571D01*
X130207027Y-60723573D01*
X130020593Y-60781284D01*
X129994624Y-60792200D01*
X129968515Y-60802749D01*
X129964684Y-60804786D01*
X129793007Y-60897611D01*
X129769627Y-60913381D01*
X129746089Y-60928783D01*
X129742736Y-60931518D01*
X129742728Y-60931524D01*
X129742721Y-60931531D01*
X129592349Y-61055929D01*
X129572497Y-61075920D01*
X129552381Y-61095619D01*
X129549615Y-61098963D01*
X129426265Y-61250205D01*
X129410671Y-61273676D01*
X129394767Y-61296903D01*
X129392706Y-61300715D01*
X129392703Y-61300719D01*
X129392703Y-61300720D01*
X129301078Y-61473042D01*
X129290345Y-61499082D01*
X129279250Y-61524968D01*
X129277967Y-61529113D01*
X129221558Y-61715950D01*
X129216093Y-61743549D01*
X129210231Y-61771127D01*
X129209778Y-61775442D01*
X129190733Y-61969676D01*
X129190733Y-61969684D01*
X129189250Y-61984741D01*
X129189250Y-63904750D01*
X126514243Y-63904750D01*
X126401386Y-63889892D01*
X126302037Y-63848740D01*
X126216723Y-63783277D01*
X126151260Y-63697963D01*
X126110108Y-63598614D01*
X126095250Y-63485757D01*
X126095250Y-61764243D01*
X126110108Y-61651386D01*
X126151260Y-61552037D01*
X126216723Y-61466723D01*
X126302037Y-61401260D01*
X126401386Y-61360108D01*
X126514243Y-61345250D01*
X127742000Y-61345250D01*
X127754433Y-61344435D01*
X127885913Y-61327125D01*
X127909930Y-61320690D01*
X128032450Y-61269941D01*
X128053985Y-61257508D01*
X128159195Y-61176777D01*
X128176777Y-61159195D01*
X128257508Y-61053985D01*
X128269941Y-61032450D01*
X128320690Y-60909930D01*
X128327125Y-60885913D01*
X128344435Y-60754433D01*
X128345250Y-60742000D01*
X128345250Y-59514243D01*
X128360108Y-59401386D01*
X128401260Y-59302037D01*
X128466723Y-59216723D01*
X128552037Y-59151260D01*
X128651386Y-59110108D01*
X128764243Y-59095250D01*
X150742000Y-59095250D01*
X150754433Y-59094435D01*
X150885913Y-59077125D01*
X150909930Y-59070690D01*
X151032450Y-59019941D01*
X151053985Y-59007508D01*
X151159195Y-58926777D01*
X151176777Y-58909195D01*
X151257508Y-58803985D01*
X151269941Y-58782450D01*
X151320690Y-58659930D01*
X151327125Y-58635913D01*
X151344435Y-58504433D01*
X151345250Y-58492000D01*
X151345250Y-46764243D01*
X151360108Y-46651386D01*
X151401260Y-46552037D01*
X151466723Y-46466723D01*
X151552037Y-46401260D01*
X151651386Y-46360108D01*
X151764243Y-46345250D01*
X154485757Y-46345250D01*
X154598614Y-46360108D01*
G37*
%TD.AperFunction*%
%TD*%
M02*
