%TF.GenerationSoftware,KiCad,Pcbnew,(5.1.9-0-10_14)*%
%TF.CreationDate,2021-04-02T13:04:38+02:00*%
%TF.ProjectId,W-DAC Piggy Board,572d4441-4320-4506-9967-677920426f61,rev?*%
%TF.SameCoordinates,Original*%
%TF.FileFunction,Legend,Bot*%
%TF.FilePolarity,Positive*%
%FSLAX46Y46*%
G04 Gerber Fmt 4.6, Leading zero omitted, Abs format (unit mm)*
G04 Created by KiCad (PCBNEW (5.1.9-0-10_14)) date 2021-04-02 13:04:38*
%MOMM*%
%LPD*%
G01*
G04 APERTURE LIST*
%ADD10C,0.150000*%
%ADD11C,0.120000*%
G04 APERTURE END LIST*
D10*
X157428571Y-55552380D02*
X157190476Y-56552380D01*
X157000000Y-55838095D01*
X156809523Y-56552380D01*
X156571428Y-55552380D01*
X156190476Y-56171428D02*
X155428571Y-56171428D01*
X154952380Y-56552380D02*
X154952380Y-55552380D01*
X154714285Y-55552380D01*
X154571428Y-55600000D01*
X154476190Y-55695238D01*
X154428571Y-55790476D01*
X154380952Y-55980952D01*
X154380952Y-56123809D01*
X154428571Y-56314285D01*
X154476190Y-56409523D01*
X154571428Y-56504761D01*
X154714285Y-56552380D01*
X154952380Y-56552380D01*
X154000000Y-56266666D02*
X153523809Y-56266666D01*
X154095238Y-56552380D02*
X153761904Y-55552380D01*
X153428571Y-56552380D01*
X152523809Y-56457142D02*
X152571428Y-56504761D01*
X152714285Y-56552380D01*
X152809523Y-56552380D01*
X152952380Y-56504761D01*
X153047619Y-56409523D01*
X153095238Y-56314285D01*
X153142857Y-56123809D01*
X153142857Y-55980952D01*
X153095238Y-55790476D01*
X153047619Y-55695238D01*
X152952380Y-55600000D01*
X152809523Y-55552380D01*
X152714285Y-55552380D01*
X152571428Y-55600000D01*
X152523809Y-55647619D01*
X151333333Y-56552380D02*
X151333333Y-55552380D01*
X150952380Y-55552380D01*
X150857142Y-55600000D01*
X150809523Y-55647619D01*
X150761904Y-55742857D01*
X150761904Y-55885714D01*
X150809523Y-55980952D01*
X150857142Y-56028571D01*
X150952380Y-56076190D01*
X151333333Y-56076190D01*
X150333333Y-56552380D02*
X150333333Y-55885714D01*
X150333333Y-55552380D02*
X150380952Y-55600000D01*
X150333333Y-55647619D01*
X150285714Y-55600000D01*
X150333333Y-55552380D01*
X150333333Y-55647619D01*
X149428571Y-55885714D02*
X149428571Y-56695238D01*
X149476190Y-56790476D01*
X149523809Y-56838095D01*
X149619047Y-56885714D01*
X149761904Y-56885714D01*
X149857142Y-56838095D01*
X149428571Y-56504761D02*
X149523809Y-56552380D01*
X149714285Y-56552380D01*
X149809523Y-56504761D01*
X149857142Y-56457142D01*
X149904761Y-56361904D01*
X149904761Y-56076190D01*
X149857142Y-55980952D01*
X149809523Y-55933333D01*
X149714285Y-55885714D01*
X149523809Y-55885714D01*
X149428571Y-55933333D01*
X148523809Y-55885714D02*
X148523809Y-56695238D01*
X148571428Y-56790476D01*
X148619047Y-56838095D01*
X148714285Y-56885714D01*
X148857142Y-56885714D01*
X148952380Y-56838095D01*
X148523809Y-56504761D02*
X148619047Y-56552380D01*
X148809523Y-56552380D01*
X148904761Y-56504761D01*
X148952380Y-56457142D01*
X149000000Y-56361904D01*
X149000000Y-56076190D01*
X148952380Y-55980952D01*
X148904761Y-55933333D01*
X148809523Y-55885714D01*
X148619047Y-55885714D01*
X148523809Y-55933333D01*
X148142857Y-55885714D02*
X147904761Y-56552380D01*
X147666666Y-55885714D02*
X147904761Y-56552380D01*
X148000000Y-56790476D01*
X148047619Y-56838095D01*
X148142857Y-56885714D01*
X146190476Y-56028571D02*
X146047619Y-56076190D01*
X146000000Y-56123809D01*
X145952380Y-56219047D01*
X145952380Y-56361904D01*
X146000000Y-56457142D01*
X146047619Y-56504761D01*
X146142857Y-56552380D01*
X146523809Y-56552380D01*
X146523809Y-55552380D01*
X146190476Y-55552380D01*
X146095238Y-55600000D01*
X146047619Y-55647619D01*
X146000000Y-55742857D01*
X146000000Y-55838095D01*
X146047619Y-55933333D01*
X146095238Y-55980952D01*
X146190476Y-56028571D01*
X146523809Y-56028571D01*
X145380952Y-56552380D02*
X145476190Y-56504761D01*
X145523809Y-56457142D01*
X145571428Y-56361904D01*
X145571428Y-56076190D01*
X145523809Y-55980952D01*
X145476190Y-55933333D01*
X145380952Y-55885714D01*
X145238095Y-55885714D01*
X145142857Y-55933333D01*
X145095238Y-55980952D01*
X145047619Y-56076190D01*
X145047619Y-56361904D01*
X145095238Y-56457142D01*
X145142857Y-56504761D01*
X145238095Y-56552380D01*
X145380952Y-56552380D01*
X144190476Y-56552380D02*
X144190476Y-56028571D01*
X144238095Y-55933333D01*
X144333333Y-55885714D01*
X144523809Y-55885714D01*
X144619047Y-55933333D01*
X144190476Y-56504761D02*
X144285714Y-56552380D01*
X144523809Y-56552380D01*
X144619047Y-56504761D01*
X144666666Y-56409523D01*
X144666666Y-56314285D01*
X144619047Y-56219047D01*
X144523809Y-56171428D01*
X144285714Y-56171428D01*
X144190476Y-56123809D01*
X143714285Y-56552380D02*
X143714285Y-55885714D01*
X143714285Y-56076190D02*
X143666666Y-55980952D01*
X143619047Y-55933333D01*
X143523809Y-55885714D01*
X143428571Y-55885714D01*
X142666666Y-56552380D02*
X142666666Y-55552380D01*
X142666666Y-56504761D02*
X142761904Y-56552380D01*
X142952380Y-56552380D01*
X143047619Y-56504761D01*
X143095238Y-56457142D01*
X143142857Y-56361904D01*
X143142857Y-56076190D01*
X143095238Y-55980952D01*
X143047619Y-55933333D01*
X142952380Y-55885714D01*
X142761904Y-55885714D01*
X142666666Y-55933333D01*
X157261904Y-58202380D02*
X157595238Y-57726190D01*
X157833333Y-58202380D02*
X157833333Y-57202380D01*
X157452380Y-57202380D01*
X157357142Y-57250000D01*
X157309523Y-57297619D01*
X157261904Y-57392857D01*
X157261904Y-57535714D01*
X157309523Y-57630952D01*
X157357142Y-57678571D01*
X157452380Y-57726190D01*
X157833333Y-57726190D01*
X156452380Y-58154761D02*
X156547619Y-58202380D01*
X156738095Y-58202380D01*
X156833333Y-58154761D01*
X156880952Y-58059523D01*
X156880952Y-57678571D01*
X156833333Y-57583333D01*
X156738095Y-57535714D01*
X156547619Y-57535714D01*
X156452380Y-57583333D01*
X156404761Y-57678571D01*
X156404761Y-57773809D01*
X156880952Y-57869047D01*
X156071428Y-57535714D02*
X155833333Y-58202380D01*
X155595238Y-57535714D01*
X154500000Y-57297619D02*
X154452380Y-57250000D01*
X154357142Y-57202380D01*
X154119047Y-57202380D01*
X154023809Y-57250000D01*
X153976190Y-57297619D01*
X153928571Y-57392857D01*
X153928571Y-57488095D01*
X153976190Y-57630952D01*
X154547619Y-58202380D01*
X153928571Y-58202380D01*
X153500000Y-58107142D02*
X153452380Y-58154761D01*
X153500000Y-58202380D01*
X153547619Y-58154761D01*
X153500000Y-58107142D01*
X153500000Y-58202380D01*
X152976190Y-58154761D02*
X152976190Y-58202380D01*
X153023809Y-58297619D01*
X153071428Y-58345238D01*
X151833333Y-57297619D02*
X151785714Y-57250000D01*
X151690476Y-57202380D01*
X151452380Y-57202380D01*
X151357142Y-57250000D01*
X151309523Y-57297619D01*
X151261904Y-57392857D01*
X151261904Y-57488095D01*
X151309523Y-57630952D01*
X151880952Y-58202380D01*
X151261904Y-58202380D01*
X150642857Y-57202380D02*
X150547619Y-57202380D01*
X150452380Y-57250000D01*
X150404761Y-57297619D01*
X150357142Y-57392857D01*
X150309523Y-57583333D01*
X150309523Y-57821428D01*
X150357142Y-58011904D01*
X150404761Y-58107142D01*
X150452380Y-58154761D01*
X150547619Y-58202380D01*
X150642857Y-58202380D01*
X150738095Y-58154761D01*
X150785714Y-58107142D01*
X150833333Y-58011904D01*
X150880952Y-57821428D01*
X150880952Y-57583333D01*
X150833333Y-57392857D01*
X150785714Y-57297619D01*
X150738095Y-57250000D01*
X150642857Y-57202380D01*
X149928571Y-57297619D02*
X149880952Y-57250000D01*
X149785714Y-57202380D01*
X149547619Y-57202380D01*
X149452380Y-57250000D01*
X149404761Y-57297619D01*
X149357142Y-57392857D01*
X149357142Y-57488095D01*
X149404761Y-57630952D01*
X149976190Y-58202380D01*
X149357142Y-58202380D01*
X148404761Y-58202380D02*
X148976190Y-58202380D01*
X148690476Y-58202380D02*
X148690476Y-57202380D01*
X148785714Y-57345238D01*
X148880952Y-57440476D01*
X148976190Y-57488095D01*
X147976190Y-57821428D02*
X147214285Y-57821428D01*
X146547619Y-57202380D02*
X146452380Y-57202380D01*
X146357142Y-57250000D01*
X146309523Y-57297619D01*
X146261904Y-57392857D01*
X146214285Y-57583333D01*
X146214285Y-57821428D01*
X146261904Y-58011904D01*
X146309523Y-58107142D01*
X146357142Y-58154761D01*
X146452380Y-58202380D01*
X146547619Y-58202380D01*
X146642857Y-58154761D01*
X146690476Y-58107142D01*
X146738095Y-58011904D01*
X146785714Y-57821428D01*
X146785714Y-57583333D01*
X146738095Y-57392857D01*
X146690476Y-57297619D01*
X146642857Y-57250000D01*
X146547619Y-57202380D01*
X145357142Y-57535714D02*
X145357142Y-58202380D01*
X145595238Y-57154761D02*
X145833333Y-57869047D01*
X145214285Y-57869047D01*
X144833333Y-57821428D02*
X144071428Y-57821428D01*
X143404761Y-57202380D02*
X143309523Y-57202380D01*
X143214285Y-57250000D01*
X143166666Y-57297619D01*
X143119047Y-57392857D01*
X143071428Y-57583333D01*
X143071428Y-57821428D01*
X143119047Y-58011904D01*
X143166666Y-58107142D01*
X143214285Y-58154761D01*
X143309523Y-58202380D01*
X143404761Y-58202380D01*
X143500000Y-58154761D01*
X143547619Y-58107142D01*
X143595238Y-58011904D01*
X143642857Y-57821428D01*
X143642857Y-57583333D01*
X143595238Y-57392857D01*
X143547619Y-57297619D01*
X143500000Y-57250000D01*
X143404761Y-57202380D01*
X142690476Y-57297619D02*
X142642857Y-57250000D01*
X142547619Y-57202380D01*
X142309523Y-57202380D01*
X142214285Y-57250000D01*
X142166666Y-57297619D01*
X142119047Y-57392857D01*
X142119047Y-57488095D01*
X142166666Y-57630952D01*
X142738095Y-58202380D01*
X142119047Y-58202380D01*
X159166666Y-58852380D02*
X158595238Y-58852380D01*
X158880952Y-59852380D02*
X158880952Y-58852380D01*
X158119047Y-59852380D02*
X158214285Y-59804761D01*
X158261904Y-59757142D01*
X158309523Y-59661904D01*
X158309523Y-59376190D01*
X158261904Y-59280952D01*
X158214285Y-59233333D01*
X158119047Y-59185714D01*
X157976190Y-59185714D01*
X157880952Y-59233333D01*
X157833333Y-59280952D01*
X157785714Y-59376190D01*
X157785714Y-59661904D01*
X157833333Y-59757142D01*
X157880952Y-59804761D01*
X157976190Y-59852380D01*
X158119047Y-59852380D01*
X157357142Y-59852380D02*
X157357142Y-58852380D01*
X157357142Y-59233333D02*
X157261904Y-59185714D01*
X157071428Y-59185714D01*
X156976190Y-59233333D01*
X156928571Y-59280952D01*
X156880952Y-59376190D01*
X156880952Y-59661904D01*
X156928571Y-59757142D01*
X156976190Y-59804761D01*
X157071428Y-59852380D01*
X157261904Y-59852380D01*
X157357142Y-59804761D01*
X156452380Y-59852380D02*
X156452380Y-59185714D01*
X156452380Y-58852380D02*
X156500000Y-58900000D01*
X156452380Y-58947619D01*
X156404761Y-58900000D01*
X156452380Y-58852380D01*
X156452380Y-58947619D01*
X155547619Y-59852380D02*
X155547619Y-59328571D01*
X155595238Y-59233333D01*
X155690476Y-59185714D01*
X155880952Y-59185714D01*
X155976190Y-59233333D01*
X155547619Y-59804761D02*
X155642857Y-59852380D01*
X155880952Y-59852380D01*
X155976190Y-59804761D01*
X156023809Y-59709523D01*
X156023809Y-59614285D01*
X155976190Y-59519047D01*
X155880952Y-59471428D01*
X155642857Y-59471428D01*
X155547619Y-59423809D01*
X155119047Y-59804761D02*
X155023809Y-59852380D01*
X154833333Y-59852380D01*
X154738095Y-59804761D01*
X154690476Y-59709523D01*
X154690476Y-59661904D01*
X154738095Y-59566666D01*
X154833333Y-59519047D01*
X154976190Y-59519047D01*
X155071428Y-59471428D01*
X155119047Y-59376190D01*
X155119047Y-59328571D01*
X155071428Y-59233333D01*
X154976190Y-59185714D01*
X154833333Y-59185714D01*
X154738095Y-59233333D01*
X153500000Y-59852380D02*
X153500000Y-58852380D01*
X153166666Y-59566666D01*
X152833333Y-58852380D01*
X152833333Y-59852380D01*
X151928571Y-59185714D02*
X151928571Y-59852380D01*
X152357142Y-59185714D02*
X152357142Y-59709523D01*
X152309523Y-59804761D01*
X152214285Y-59852380D01*
X152071428Y-59852380D01*
X151976190Y-59804761D01*
X151928571Y-59757142D01*
X152309523Y-58852380D02*
X152261904Y-58900000D01*
X152309523Y-58947619D01*
X152357142Y-58900000D01*
X152309523Y-58852380D01*
X152309523Y-58947619D01*
X151928571Y-58852380D02*
X151880952Y-58900000D01*
X151928571Y-58947619D01*
X151976190Y-58900000D01*
X151928571Y-58852380D01*
X151928571Y-58947619D01*
X151309523Y-59852380D02*
X151404761Y-59804761D01*
X151452380Y-59709523D01*
X151452380Y-58852380D01*
X150785714Y-59852380D02*
X150880952Y-59804761D01*
X150928571Y-59709523D01*
X150928571Y-58852380D01*
X150023809Y-59804761D02*
X150119047Y-59852380D01*
X150309523Y-59852380D01*
X150404761Y-59804761D01*
X150452380Y-59709523D01*
X150452380Y-59328571D01*
X150404761Y-59233333D01*
X150309523Y-59185714D01*
X150119047Y-59185714D01*
X150023809Y-59233333D01*
X149976190Y-59328571D01*
X149976190Y-59423809D01*
X150452380Y-59519047D01*
X149547619Y-59852380D02*
X149547619Y-59185714D01*
X149547619Y-59376190D02*
X149500000Y-59280952D01*
X149452380Y-59233333D01*
X149357142Y-59185714D01*
X149261904Y-59185714D01*
X148880952Y-59804761D02*
X148880952Y-59852380D01*
X148928571Y-59947619D01*
X148976190Y-59995238D01*
X147833333Y-59185714D02*
X147452380Y-59185714D01*
X147690476Y-58852380D02*
X147690476Y-59709523D01*
X147642857Y-59804761D01*
X147547619Y-59852380D01*
X147452380Y-59852380D01*
X147214285Y-59185714D02*
X147023809Y-59852380D01*
X146833333Y-59376190D01*
X146642857Y-59852380D01*
X146452380Y-59185714D01*
X145642857Y-59852380D02*
X145642857Y-59328571D01*
X145690476Y-59233333D01*
X145785714Y-59185714D01*
X145976190Y-59185714D01*
X146071428Y-59233333D01*
X145642857Y-59804761D02*
X145738095Y-59852380D01*
X145976190Y-59852380D01*
X146071428Y-59804761D01*
X146119047Y-59709523D01*
X146119047Y-59614285D01*
X146071428Y-59519047D01*
X145976190Y-59471428D01*
X145738095Y-59471428D01*
X145642857Y-59423809D01*
X145166666Y-59852380D02*
X145166666Y-59185714D01*
X145166666Y-59280952D02*
X145119047Y-59233333D01*
X145023809Y-59185714D01*
X144880952Y-59185714D01*
X144785714Y-59233333D01*
X144738095Y-59328571D01*
X144738095Y-59852380D01*
X144738095Y-59328571D02*
X144690476Y-59233333D01*
X144595238Y-59185714D01*
X144452380Y-59185714D01*
X144357142Y-59233333D01*
X144309523Y-59328571D01*
X144309523Y-59852380D01*
X143833333Y-59757142D02*
X143785714Y-59804761D01*
X143833333Y-59852380D01*
X143880952Y-59804761D01*
X143833333Y-59757142D01*
X143833333Y-59852380D01*
X143357142Y-59852380D02*
X143357142Y-59185714D01*
X143357142Y-58852380D02*
X143404761Y-58900000D01*
X143357142Y-58947619D01*
X143309523Y-58900000D01*
X143357142Y-58852380D01*
X143357142Y-58947619D01*
X142880952Y-59185714D02*
X142880952Y-59852380D01*
X142880952Y-59280952D02*
X142833333Y-59233333D01*
X142738095Y-59185714D01*
X142595238Y-59185714D01*
X142500000Y-59233333D01*
X142452380Y-59328571D01*
X142452380Y-59852380D01*
X142119047Y-59185714D02*
X141738095Y-59185714D01*
X141976190Y-59852380D02*
X141976190Y-58995238D01*
X141928571Y-58900000D01*
X141833333Y-58852380D01*
X141738095Y-58852380D01*
X141261904Y-59852380D02*
X141357142Y-59804761D01*
X141404761Y-59757142D01*
X141452380Y-59661904D01*
X141452380Y-59376190D01*
X141404761Y-59280952D01*
X141357142Y-59233333D01*
X141261904Y-59185714D01*
X141119047Y-59185714D01*
X141023809Y-59233333D01*
X140976190Y-59280952D01*
X140928571Y-59376190D01*
X140928571Y-59661904D01*
X140976190Y-59757142D01*
X141023809Y-59804761D01*
X141119047Y-59852380D01*
X141261904Y-59852380D01*
D11*
%TO.C,J5*%
X174250000Y-116190000D02*
X171590000Y-116190000D01*
X174250000Y-116190000D02*
X174250000Y-139110000D01*
X174250000Y-139110000D02*
X171590000Y-139110000D01*
X171590000Y-116190000D02*
X171590000Y-139110000D01*
X171590000Y-113590000D02*
X171590000Y-114920000D01*
X172920000Y-113590000D02*
X171590000Y-113590000D01*
%TO.C,J2*%
X128530000Y-121270000D02*
X125870000Y-121270000D01*
X128530000Y-121270000D02*
X128530000Y-139110000D01*
X128530000Y-139110000D02*
X125870000Y-139110000D01*
X125870000Y-121270000D02*
X125870000Y-139110000D01*
X125870000Y-118670000D02*
X125870000Y-120000000D01*
X127200000Y-118670000D02*
X125870000Y-118670000D01*
%TO.C,J4*%
X171470000Y-58730000D02*
X174130000Y-58730000D01*
X171470000Y-58730000D02*
X171470000Y-40890000D01*
X171470000Y-40890000D02*
X174130000Y-40890000D01*
X174130000Y-58730000D02*
X174130000Y-40890000D01*
X174130000Y-61330000D02*
X174130000Y-60000000D01*
X172800000Y-61330000D02*
X174130000Y-61330000D01*
%TO.C,J3*%
X125750000Y-63810000D02*
X128410000Y-63810000D01*
X125750000Y-63810000D02*
X125750000Y-40890000D01*
X125750000Y-40890000D02*
X128410000Y-40890000D01*
X128410000Y-63810000D02*
X128410000Y-40890000D01*
X128410000Y-66410000D02*
X128410000Y-65080000D01*
X127080000Y-66410000D02*
X128410000Y-66410000D01*
%TD*%
M02*
