M48
; DRILL file {KiCad (5.1.9-0-10_14)} date Friday, April 02, 2021 at 01:04:40 PM
; FORMAT={-:-/ absolute / inch / decimal}
; #@! TF.CreationDate,2021-04-02T13:04:40+02:00
; #@! TF.GenerationSoftware,Kicad,Pcbnew,(5.1.9-0-10_14)
FMAT,2
INCH
T1C0.0118
T2C0.0394
T3C0.0669
%
G90
G05
T1
X5.2756Y-2.262
X5.3756Y-2.162
X5.4756Y-2.0622
X5.5756Y-1.962
T2
X5.0031Y-1.6622
X5.0031Y-1.7622
X5.0031Y-1.8622
X5.0031Y-1.9622
X5.0031Y-2.0622
X5.0031Y-2.1622
X5.0031Y-2.2622
X5.0031Y-2.3622
X5.0031Y-2.4622
X5.0031Y-2.5622
X5.0079Y-4.7244
X5.0079Y-4.8244
X5.0079Y-4.9244
X5.0079Y-5.0244
X5.0079Y-5.1244
X5.0079Y-5.2244
X5.0079Y-5.3244
X5.0079Y-5.4244
X5.2756Y-1.7618
X5.3756Y-1.7618
X5.4756Y-1.7618
X5.5756Y-1.7618
X5.6756Y-1.7618
X6.8031Y-1.6622
X6.8031Y-1.7622
X6.8031Y-1.8622
X6.8031Y-1.9622
X6.8031Y-2.0622
X6.8031Y-2.1622
X6.8031Y-2.2622
X6.8031Y-2.3622
X6.8079Y-4.5244
X6.8079Y-4.6244
X6.8079Y-4.7244
X6.8079Y-4.8244
X6.8079Y-4.9244
X6.8079Y-5.0244
X6.8079Y-5.1244
X6.8079Y-5.2244
X6.8079Y-5.3244
X6.8079Y-5.4244
T3
X6.0283Y-1.8898
X6.1843Y-1.8898
X6.3402Y-1.8898
X6.4961Y-1.8898
T0
M30
